<svg width="56" height="47" viewBox="0 0 56 47" fill="none" xmlns="http://www.w3.org/2000/svg">
<path d="M4 46.488C3.73478 46.488 3.48043 46.3826 3.29289 46.1951C3.10536 46.0076 3 45.7532 3 45.488V40.274C3 40.0088 3.10536 39.7544 3.29289 39.5669C3.48043 39.3794 3.73478 39.274 4 39.274C4.26522 39.274 4.51957 39.3794 4.70711 39.5669C4.89464 39.7544 5 40.0088 5 40.274V45.488C5 45.7532 4.89464 46.0076 4.70711 46.1951C4.51957 46.3826 4.26522 46.488 4 46.488ZM52 46.488C51.7348 46.488 51.4804 46.3826 51.2929 46.1951C51.1054 46.0076 51 45.7532 51 45.488V40.274C51 40.0088 51.1054 39.7544 51.2929 39.5669C51.4804 39.3794 51.7348 39.274 52 39.274C52.2652 39.274 52.5196 39.3794 52.7071 39.5669C52.8946 39.7544 53 40.0088 53 40.274V45.488C53 45.7532 52.8946 46.0076 52.7071 46.1951C52.5196 46.3826 52.2652 46.488 52 46.488ZM51.992 10.298H46.01C42.6155 10.289 39.3632 8.93431 36.966 6.531L35.621 5.175C33.618 3.157 30.839 2 27.996 2C25.153 2 22.374 3.157 20.371 5.175L19.026 6.531C16.6288 8.93431 13.3765 10.289 9.982 10.298H4C3.73478 10.298 3.48043 10.1926 3.29289 10.0051C3.10536 9.81757 3 9.56322 3 9.298C3 9.03278 3.10536 8.77843 3.29289 8.59089C3.48043 8.40336 3.73478 8.298 4 8.298H9.982C12.8434 8.29041 15.585 7.14865 17.606 5.123L18.951 3.767C21.327 1.373 24.624 0 27.995 0C31.366 0 34.663 1.373 37.039 3.767L38.385 5.123C40.4062 7.1489 43.1483 8.29068 46.01 8.298H51.992C52.2572 8.298 52.5116 8.40336 52.6991 8.59089C52.8866 8.77843 52.992 9.03278 52.992 9.298C52.992 9.56322 52.8866 9.81757 52.6991 10.0051C52.5116 10.1926 52.2572 10.298 51.992 10.298ZM55 34.701C54.7348 34.701 54.4804 34.5956 54.2929 34.4081C54.1054 34.2206 54 33.9662 54 33.701V32.734C53.9962 31.6975 53.7589 30.6752 53.3056 29.7431C52.8524 28.811 52.1949 27.993 51.382 27.35C50.9 26.957 50.382 26.648 49.826 26.417C47.8469 25.5779 45.8262 24.8403 43.772 24.207C43.5608 24.1487 43.3745 24.023 43.2414 23.8489C43.1083 23.6749 43.0358 23.4621 43.035 23.243C43.035 22.69 43.478 22.243 44.03 22.243H44.04C44.139 22.243 44.238 22.258 44.332 22.287C46.4587 22.9409 48.5505 23.7035 50.599 24.572C51.3322 24.8763 52.0171 25.286 52.632 25.788C54.736 27.439 56 30.04 56 32.733V33.7C56 33.9652 55.8946 34.2196 55.7071 34.4071C55.5196 34.5946 55.2652 34.701 55 34.701ZM1 34.701C0.734784 34.701 0.48043 34.5956 0.292893 34.4081C0.105357 34.2206 0 33.9662 0 33.701V32.734C0.0047856 31.3949 0.311333 30.0742 0.896852 28.8699C1.48237 27.6656 2.3318 26.6088 3.382 25.778C3.99467 25.2795 4.67645 24.8726 5.406 24.57C7.45265 23.7029 9.54239 22.9412 11.667 22.288C12.292 22.098 12.964 22.593 12.964 23.244C12.9649 23.4709 12.8884 23.6914 12.7471 23.869C12.6059 24.0466 12.4083 24.1708 12.187 24.221C10.1486 24.8504 8.14331 25.5826 6.179 26.415C5.62091 26.6461 5.09971 26.9577 4.632 27.34C3.81559 27.9832 3.1549 28.8024 2.69917 29.7366C2.24345 30.6707 2.00446 31.6956 2 32.735V33.702C2 33.9672 1.89464 34.2216 1.70711 34.4091C1.51957 34.5966 1.26522 34.701 1 34.701Z" fill="#4F4B47"/>
<path d="M44.0399 24.2441C43.9399 24.2441 43.8319 24.2291 43.7369 24.2001C33.2949 20.9951 22.7059 20.9951 12.2629 24.2001C11.6399 24.3891 10.9599 23.8951 10.9599 23.2441V17.4141C10.9599 15.2081 12.7539 13.4141 14.9599 13.4141H41.0399C43.2459 13.4141 45.0399 15.2081 45.0399 17.4141V23.2441C45.0399 23.5093 44.9345 23.7637 44.747 23.9512C44.5595 24.1387 44.3051 24.2441 44.0399 24.2441ZM27.9999 19.7961C33.0229 19.7961 38.0469 20.5001 43.0399 21.9101V17.4141C43.0399 16.3111 42.1429 15.4141 41.0399 15.4141H14.9599C13.8569 15.4141 12.9599 16.3111 12.9599 17.4141V21.9101C17.9529 20.5001 22.9769 19.7961 27.9999 19.7961ZM3.99989 27.5651C3.73467 27.5651 3.48032 27.4597 3.29278 27.2722C3.10525 27.0847 2.99989 26.8303 2.99989 26.5651V1.50708C2.99989 1.24186 3.10525 0.98751 3.29278 0.799973C3.48032 0.612437 3.73467 0.50708 3.99989 0.50708C4.26511 0.50708 4.51946 0.612437 4.707 0.799973C4.89453 0.98751 4.99989 1.24186 4.99989 1.50708V26.5661C4.99989 26.8313 4.89453 27.0856 4.707 27.2732C4.51946 27.4607 4.26511 27.5651 3.99989 27.5651ZM51.9999 27.5651C51.7347 27.5651 51.4803 27.4597 51.2928 27.2722C51.1052 27.0847 50.9999 26.8303 50.9999 26.5651V1.50708C50.9999 1.24186 51.1052 0.98751 51.2928 0.799973C51.4803 0.612437 51.7347 0.50708 51.9999 0.50708C52.2651 0.50708 52.5195 0.612437 52.707 0.799973C52.8945 0.98751 52.9999 1.24186 52.9999 1.50708V26.5661C52.9999 26.8313 52.8945 27.0856 52.707 27.2732C52.5195 27.4607 52.2651 27.5651 51.9999 27.5651ZM54.9899 41.2741H0.999889C0.83008 41.2739 0.66311 41.2305 0.514687 41.148C0.366265 41.0655 0.241269 40.9466 0.151459 40.8025C0.0616491 40.6584 0.00997788 40.4938 0.00130624 40.3242C-0.0073654 40.1546 0.0272478 39.9856 0.101889 39.8331C0.162889 39.7091 6.36589 27.5271 23.4649 31.8541C26.4269 32.6001 29.5609 32.6001 32.5259 31.8541C49.6329 27.5251 55.8279 39.7101 55.8879 39.8331C55.9631 39.9855 55.9982 40.1547 55.9898 40.3245C55.9814 40.4943 55.9297 40.6591 55.8398 40.8034C55.7499 40.9477 55.6247 41.0667 55.4759 41.149C55.3272 41.2314 55.1599 41.2744 54.9899 41.2741ZM2.84089 39.2741H53.1749C51.0719 36.4411 45.1519 30.7201 33.0149 33.7941C29.7193 34.6211 26.2705 34.6211 22.9749 33.7941C10.9809 30.7581 4.98289 36.4591 2.84089 39.2741Z" fill="#4F4B47"/>
</svg>
