<svg width="20" height="20" viewBox="0 0 20 20" fill="none" xmlns="http://www.w3.org/2000/svg">
<g clip-path="url(#clip0_908_492)">
<path d="M15.9892 5.95529e-05C15.8154 0.00283076 15.6495 0.0733875 15.5269 0.19669L13.5279 2.20075C13.499 2.22956 13.4729 2.26094 13.4498 2.29451C11.6315 1.39921 9.62327 1.14613 7.71594 1.48195C5.53044 1.86675 3.47824 3.02338 2.01073 4.87804C-0.924259 8.58742 -0.613688 13.9197 2.72958 17.2658C6.07287 20.6119 11.4058 20.9252 15.118 17.9937C18.595 15.2479 19.6305 10.4581 17.7095 6.55266C17.7441 6.52887 17.7763 6.50181 17.8058 6.47192L19.8035 4.47437C19.8657 4.41242 19.9152 4.33876 19.9489 4.25764C19.9827 4.17652 20 4.08953 20 4.00168C20 3.91383 19.9827 3.82684 19.9489 3.74573C19.9152 3.66461 19.8657 3.59095 19.8035 3.52899L18.608 2.33749L19.1394 1.8062C19.2349 1.71224 19.3 1.59165 19.326 1.46017C19.3521 1.32868 19.3378 1.19241 19.2853 1.06911C19.2327 0.945822 19.1442 0.841236 19.0312 0.769005C18.9184 0.696768 18.7863 0.66024 18.6523 0.664179C18.4791 0.66934 18.3147 0.741729 18.1939 0.866014L17.6665 1.3934L16.471 0.19669C16.408 0.13329 16.3329 0.0832122 16.25 0.049434C16.1673 0.0156558 16.0786 -0.00113512 15.9892 5.95529e-05ZM15.9996 1.61477L16.7223 2.33749L14.6648 4.39494V2.943L15.9996 1.61477ZM9.36458 2.66824C10.7212 2.67404 12.0866 3.03179 13.3313 3.75166V5.72838L13.0708 5.98881C12.0429 5.16683 10.7429 4.67102 9.32944 4.67102C6.02318 4.67102 3.32992 7.36411 3.32992 10.6702C3.32992 13.9763 6.02318 16.6694 9.32944 16.6694C12.6357 16.6694 15.3341 13.9763 15.3341 10.6702C15.3341 9.25639 14.8384 7.9573 14.015 6.93032L14.2767 6.66858H16.2522C18.2409 10.1024 17.423 14.4773 14.2911 16.9506C11.1013 19.4696 6.54259 19.2008 3.66981 16.3256C0.797053 13.4504 0.537113 8.89226 3.05906 5.70493C4.63526 3.71287 6.98219 2.65807 9.36458 2.66824ZM17.6665 3.27897L18.3905 4.00168L17.057 5.33512H15.6102L17.6665 3.27897ZM9.32944 6.00447C10.3805 6.00447 11.3462 6.35251 12.1254 6.93419L10.676 8.38356C10.2787 8.14785 9.82152 8.00329 9.32944 8.00329C7.86439 8.00329 6.66762 9.20522 6.66762 10.6702C6.66762 12.1352 7.86439 13.3384 9.32944 13.3384C10.7945 13.3384 11.9978 12.1352 11.9978 10.6702C11.9978 10.1791 11.8524 9.72433 11.6175 9.32763L13.0682 7.877C13.6511 8.65528 14.0006 9.61904 14.0006 10.6702C14.0006 13.2556 11.915 15.3359 9.32944 15.3359C6.74384 15.3359 4.66346 13.2556 4.66346 10.6702C4.66346 8.08473 6.74384 6.00447 9.32944 6.00447ZM9.32944 9.33674C9.44946 9.33674 9.56304 9.35742 9.67324 9.38622L8.86191 10.1975C8.79776 10.2588 8.74647 10.3322 8.71107 10.4135C8.67572 10.4949 8.65684 10.5824 8.65575 10.6711C8.6546 10.7598 8.67113 10.8478 8.70447 10.93C8.73774 11.0122 8.78712 11.087 8.84969 11.1499C8.91221 11.2128 8.98668 11.2625 9.06873 11.2963C9.15072 11.33 9.23866 11.3471 9.32737 11.3464C9.41607 11.3458 9.50374 11.3274 9.5853 11.2925C9.66681 11.2575 9.74051 11.2067 9.80216 11.1429L10.6161 10.329C10.6444 10.4383 10.6629 10.5512 10.6629 10.6702C10.6629 11.4145 10.0738 12.0049 9.32944 12.0049C8.58505 12.0049 8.0011 11.4145 8.0011 10.6702C8.0011 9.92584 8.58505 9.33674 9.32944 9.33674Z" fill="#F94A3D"/>
</g>
<defs>
<clipPath id="clip0_908_492">
<rect width="20" height="20" fill="white"/>
</clipPath>
</defs>
</svg>
