<svg width="60" height="60" viewBox="0 0 60 60" fill="none" xmlns="http://www.w3.org/2000/svg">
<path d="M57.388 57.9548C57.7411 58.472 58.1882 58.8481 58.1176 59.1067C58.0234 59.4593 57.5526 59.6944 57.2466 60C56.9877 59.6709 56.5407 59.3653 56.4936 59.0128C56.47 58.7542 56.9643 58.425 57.388 57.9548ZM2.70648 57.9548C3.08305 58.4484 3.55364 58.801 3.50665 59.0596C3.43604 59.4123 2.96527 59.671 2.6828 59.9766C2.40037 59.671 1.95332 59.3654 1.88263 59.0128C1.83555 58.7777 2.32986 58.4485 2.70648 57.9548ZM57.2459 54.5457C57.5284 54.5223 58.0696 54.9689 58.0932 55.251C58.1403 55.6036 57.7637 55.9798 57.3871 56.6616C56.9399 56.0269 56.4927 55.6977 56.4927 55.3451C56.4927 55.063 56.9635 54.5692 57.2459 54.5457ZM2.77843 54.1933C3.13149 54.7104 3.57862 55.0865 3.50803 55.3451C3.41388 55.6978 2.94306 55.9328 2.63706 56.2384C2.37815 55.9094 1.93117 55.6038 1.88401 55.2512C1.86047 54.9691 2.35474 54.6635 2.77843 54.1933ZM23.8211 0.261848C24.1036 0.755509 24.3624 1.17876 24.6684 1.67243C22.4559 2.68336 23.6327 4.54055 23.3267 6.1627C34.3662 8.09049 45.3118 10.0183 56.3984 11.9697V7.47915H58.1875V12.2518C58.8701 12.3929 59.388 12.4869 60 12.6045V14.1326H58.2815V23.3482C58.87 23.3952 59.388 23.4188 60 23.4658V25.1351C59.4351 25.1821 58.917 25.2056 58.2815 25.2527V27.1098C58.8464 27.1333 59.388 27.1804 60 27.2039V28.873C59.4351 28.92 58.917 28.9435 58.2815 28.9906V46.8345C58.8464 46.8816 59.388 46.9051 60 46.9521V48.6212C59.4351 48.6682 58.9172 48.6917 58.2346 48.7387V52.3828H56.4692V48.7624C38.7917 48.8094 21.2789 48.8095 3.57791 48.8095V52.4298H1.83597V48.7858C1.15337 48.7388 0.635528 48.7153 0 48.6683V46.9992C0.541374 46.9521 1.05922 46.9286 1.71827 46.8816V29.0376C1.1769 28.9906 0.635432 28.9671 0.0234467 28.9201V27.251C0.564835 27.204 1.12985 27.1568 1.7654 27.1098V25.2761C1.17693 25.2526 0.635542 25.2055 0 25.1585V23.4894C0.541376 23.4424 1.10628 23.3952 1.71827 23.3482V15.0023C1.1769 15.0728 0.635528 15.1199 0 15.1669V13.6153C1.7889 12.863 1.78884 12.863 1.78884 10.8412C1.78884 9.83035 1.81252 8.79585 1.81252 7.78496C1.81252 7.71444 1.8596 7.64384 1.93021 7.5028H3.53079V11.7346C10.4276 7.83194 17.0655 4.07042 23.8211 0.261848ZM3.64848 38.7708C3.50726 40.0638 3.41312 41.3098 4.70772 42.3677C5.95526 43.3551 7.10875 44.5072 8.09737 45.7532C9.15659 47.0696 10.4277 47.0461 11.6987 46.905C9.01534 44.2014 6.33187 41.4744 3.64848 38.7708ZM3.67193 33.3399C3.46008 34.8445 3.62496 36.02 4.82541 37.1485C7.88541 40.0167 10.8513 42.9789 13.723 46.0351C14.8057 47.1871 15.9356 46.952 17.1832 46.858C12.6638 42.3206 8.21487 37.8772 3.67193 33.3399ZM3.78962 28.8262C3.64842 28.9907 3.48373 29.1553 3.34253 29.3198C3.6956 29.9781 3.88392 30.7775 4.40177 31.2947C9.32131 36.2787 14.3115 41.1923 19.2311 46.1763C19.8901 46.858 20.5257 47.1165 21.7967 46.7404C21.4907 46.1057 21.3496 45.4474 20.9259 45.0243C15.7945 39.8521 10.6629 34.7036 5.48445 29.602C5.06075 29.2023 4.37809 29.0848 3.78962 28.8262ZM43.2168 46.8816H48.772V36.5607H43.2168V46.8816ZM50.7491 46.8816H56.3044V36.5607H50.7491V46.8816ZM3.67193 46.8345H6.56736C5.60228 45.8706 4.68409 44.9537 3.67193 43.9192V46.8345ZM23.4209 46.8345H33.7073V36.4668H29.1644V34.6565H56.3278C56.3514 32.7288 56.3515 30.942 56.3515 29.0613H23.4209V46.8345ZM35.661 46.8345H41.2397V36.5373H35.661V46.8345ZM11.1574 29.9075C10.0746 28.7791 8.94462 28.9671 7.83831 29.0847C12.3813 33.6221 16.9478 38.1595 21.4907 42.7203C21.8438 41.2393 21.4201 40.0638 20.2198 38.9354C17.1127 36.0202 14.0997 32.9873 11.1574 29.9075ZM16.689 30.0721C15.6297 28.7556 14.4056 28.9202 13.1345 29.0613C15.912 31.8589 18.6661 34.6566 21.4907 37.4777C21.7967 35.9731 21.5613 34.7271 20.2666 33.6457C18.9721 32.5878 17.7482 31.3887 16.689 30.0721ZM27.045 36.4198H25.3739V34.7977H27.045V36.4198ZM18.1953 29.0613C19.3722 30.1427 20.4315 31.1065 21.4907 32.0939V29.0613H18.1953ZM23.3975 27.1334H56.3278V25.3231H23.3975V27.1334ZM3.64848 27.0864H21.5144V25.2997H3.64848V27.0864ZM3.69561 23.3719H9.25063V18.6933H3.69561V23.3719ZM21.5144 3.7176C21.2319 3.81163 21.0906 3.83533 20.9494 3.90586C17.8894 5.64557 14.8058 7.36175 11.7693 9.14848C11.4162 9.36008 11.1573 10.0183 11.1337 10.4649C11.0866 14.2265 11.1103 17.9881 11.1103 21.7262V23.3482H21.4907C21.5142 16.8125 21.5144 10.3238 21.5144 3.7176ZM23.4209 23.3482H56.3278V13.7563C45.3353 11.8285 34.4134 9.9243 23.4209 7.973V23.3482ZM36.6722 19.7513C36.9546 19.7278 37.2842 20.2216 37.802 20.6683C37.2136 21.0209 36.837 21.3971 36.4839 21.3735C36.2015 21.35 35.7073 20.7388 35.7543 20.5507C35.872 20.1981 36.3191 19.8218 36.6722 19.7513ZM36.6253 15.99C36.8842 15.9429 37.2608 16.4131 37.8257 16.8128C37.2608 17.1889 36.9078 17.6119 36.5547 17.612C36.2723 17.612 35.7309 17.0243 35.778 16.8362C35.8722 16.4836 36.2958 16.0605 36.6253 15.99ZM9.2743 10.5354C7.39121 11.5934 5.62563 12.5808 3.90732 13.5917C3.74259 13.6857 3.62507 13.9679 3.62504 14.1794C3.6015 15.0258 3.60136 15.8722 3.60136 16.7655H9.2743V10.5354ZM36.6267 12.2518C36.8856 12.1813 37.2623 12.6515 37.8036 13.0747C37.2387 13.4508 36.8857 13.874 36.5326 13.8741C36.2502 13.8741 35.7089 13.2864 35.7559 13.0983C35.8501 12.7457 36.2736 12.3224 36.6267 12.2518ZM57.3862 3.76466C57.6686 3.74115 57.9981 4.21145 58.516 4.68163C57.9276 5.03427 57.551 5.43394 57.1979 5.38692C56.9154 5.36341 56.4212 4.75218 56.4683 4.56408C56.586 4.21145 57.0331 3.81171 57.3862 3.76466ZM2.7297 3.74147C2.96508 3.69445 3.34184 4.16465 3.9303 4.56431C3.36538 4.96398 3.03565 5.38715 2.68257 5.38715C2.40016 5.38705 2.11769 4.89347 1.83528 4.61138C2.11772 4.30577 2.37665 3.83555 2.7297 3.74147ZM2.80188 0.00310307C3.08433 -0.0203484 3.39042 0.473324 3.90824 0.943493C3.31977 1.27263 2.91948 1.64888 2.58994 1.62537C2.3075 1.60181 2.07211 1.06108 1.81321 0.755461C2.14275 0.496853 2.4488 0.0501225 2.80188 0.00310307ZM57.3864 0.00310307C57.6453 -0.0438056 57.9984 0.44979 58.5162 0.896427C57.9277 1.24906 57.5511 1.64885 57.2216 1.62537C56.9391 1.60186 56.4213 1.01419 56.4917 0.802526C56.6094 0.44988 57.0333 0.0501225 57.3864 0.00310307Z" fill="#4F4B47"/>
</svg>
