<svg width="60" height="60" viewBox="0 0 60 60" fill="none" xmlns="http://www.w3.org/2000/svg">
<path d="M44.102 20.6646C44.3362 20.9222 44.7569 21.1799 44.7573 21.4375C44.8041 25.0222 44.8041 28.631 44.7573 32.2157C44.757 32.5202 44.4297 32.9183 44.1255 33.1057C39.6761 36.2921 35.226 39.4319 30.7766 42.6183C30.2148 43.0163 29.7467 43.0162 29.2083 42.5948C28.0608 41.728 26.8891 40.8845 25.6714 40.1113C25.3669 39.924 24.7815 39.8771 24.5006 40.0645C22.7445 41.1655 21.0586 42.3603 19.162 43.6253C22.0658 45.6871 24.8289 47.6558 27.5922 49.6239C30.0273 51.3574 30.0278 51.3575 32.4396 49.6239C40.5889 43.8369 48.7382 38.073 56.864 32.286C57.1685 32.0517 57.4971 31.8167 57.9187 31.5121C57.2864 31.067 56.7239 30.6926 56.1385 30.2943C53.4454 28.4902 50.7753 26.6863 48.0823 24.8588C47.8481 24.6948 47.5441 24.6002 47.427 24.3894C47.2399 24.0615 47.216 23.6634 47.0989 23.3121C47.4735 23.2886 47.9652 23.0781 48.2229 23.2418C51.9931 25.7253 55.7636 28.2558 59.4869 30.8095C59.7444 30.9969 59.9555 31.4418 59.9557 31.7932C60.0025 33.9487 60.0259 36.0812 59.9557 38.2367C59.9322 38.6584 59.6048 39.1978 59.2536 39.4555C49.7927 46.2032 40.3077 52.9274 30.8235 59.6751C30.2149 60.1199 29.77 60.0965 29.1614 59.6751C19.7006 52.9274 10.1922 46.2267 0.731357 39.4555C0.356684 39.1978 0.052688 38.5882 0.0526828 38.1196C-0.0175659 36.0814 -0.0175559 34.0666 0.0526828 32.0284C0.0760966 31.5364 0.427053 30.9034 0.801665 30.6222C4.38461 28.1386 8.03848 25.7019 11.6683 23.2886C12.1365 22.9606 12.7213 22.4456 13.1194 23.2418C13.2364 23.4995 12.8623 24.2263 12.511 24.4606C9.39646 26.6161 6.25784 28.7009 3.1199 30.8329C2.81555 31.0438 2.51111 31.2779 2.11312 31.559C5.76631 34.1362 9.30304 36.6665 12.9094 39.2204C14.8529 37.9084 16.7498 36.6436 18.8104 35.2613C17.8269 34.5585 16.9837 33.9256 16.0938 33.3165C15.485 32.9182 15.2042 32.4492 15.2042 31.6761C15.251 28.5133 15.2042 25.3506 15.2511 22.1879C15.2511 21.7663 15.6253 21.0162 15.9063 20.969C16.7728 20.8519 16.6797 21.6256 16.6797 22.1879C16.6797 24.8822 16.7499 27.5766 16.6563 30.2708C16.6095 31.4657 16.914 32.2858 17.9677 32.8246C18.389 33.0355 18.7869 33.3634 19.4188 33.7849V30.9969C19.4188 29.8255 19.9109 28.9585 20.9646 28.4665C22.0887 27.9511 23.0961 28.2086 24.0094 28.9817C25.1569 29.9658 25.812 31.2315 25.8355 32.7544C25.8589 34.3241 25.8823 35.8707 25.8355 37.4404C25.8121 38.1431 26.0235 38.5879 26.6323 38.9627C27.4752 39.5015 28.2943 40.1112 29.3245 40.8139V31.4184C29.3245 30.8562 29.3018 30.1537 30.051 30.2708C30.332 30.3179 30.7295 31.0436 30.7297 31.4653C30.8 34.1128 30.7532 36.7846 30.7532 39.4321V40.7202C31.1513 40.4859 31.4096 40.369 31.6437 40.1816C35.2969 37.5809 38.9734 35.0037 42.6031 32.3797C42.9778 32.0985 43.3052 31.4655 43.3286 30.9969C43.3989 28.0683 43.3521 25.1398 43.3521 22.2113C43.3521 21.977 43.2818 21.6952 43.3755 21.5077C43.5629 21.1798 43.8679 20.9457 44.102 20.6646ZM1.48132 32.9886C1.48132 34.4412 1.52813 35.7068 1.45788 36.9954C1.41117 37.8386 1.69203 38.3303 2.37092 38.8222C10.9887 44.8904 19.5593 51.0063 28.1537 57.0979C28.4581 57.3088 28.7868 57.4959 29.2786 57.8005C29.2786 56.2542 29.2318 54.9184 29.3021 53.5595C29.3254 52.8333 29.0437 52.4354 28.4818 52.0372C19.8172 45.9221 11.1762 39.7595 2.51153 33.6209C2.23057 33.4335 1.94953 33.2697 1.48132 32.9886ZM58.5036 33.1057C58.2695 33.1525 58.2223 33.1525 58.1755 33.1759C49.1597 39.5487 40.144 45.9454 31.1516 52.3182C30.9409 52.4823 30.7297 52.81 30.7297 53.0677C30.7063 54.5906 30.7297 56.0902 30.7297 57.7303C31.0105 57.6366 31.1047 57.6131 31.1516 57.5663C40.0972 51.2169 49.0433 44.8906 57.9655 38.5412C58.1763 38.4006 58.4801 38.1664 58.4802 37.9557C58.527 36.3625 58.5036 34.7457 58.5036 33.1057ZM23.0719 30.1537C22.8611 29.8258 22.0425 29.6386 21.6677 29.8024C21.2931 29.943 20.9646 30.5986 20.9178 31.0671C20.8007 32.1447 20.8241 33.2459 20.8943 34.347C20.9646 35.2841 20.6134 35.8467 19.8172 36.3387C17.9673 37.5101 16.141 38.7759 14.1974 40.0879C15.4853 41.025 16.6329 41.8451 17.8505 42.7119C19.8878 41.3531 21.8783 40.0406 23.8219 38.6583C24.1028 38.4474 24.3364 37.9791 24.3365 37.6278C24.3833 36.058 24.5004 34.4881 24.3131 32.9417C24.1726 31.9577 23.6105 30.9972 23.0719 30.1537ZM39.1404 25.4687C39.9366 25.0001 40.4284 25.2576 40.4753 26.1713C40.5221 27.4834 40.5221 28.8192 40.4518 30.1313C40.4283 30.4826 40.1243 30.9275 39.82 31.1384C38.6491 32.0287 37.4305 32.8956 36.2128 33.7156C35.3465 34.3011 34.832 34.0436 34.7617 32.9896C34.7383 32.3336 34.7617 31.6774 34.7617 30.6934C34.1997 28.9362 35.2299 27.7408 36.9862 26.8739C37.7354 26.4991 38.4146 25.9138 39.1404 25.4687ZM38.8592 27.5072C36.1666 28.9362 35.8385 29.5219 36.4706 31.6302C39.4212 29.7325 39.0699 30.3887 38.8592 27.5072ZM30.0061 0C30.3104 0.16392 30.568 0.304541 30.8254 0.491828C36.9375 5.01373 43.0502 9.55961 49.1623 14.0815C50.0284 14.7374 50.0284 15.1822 49.1154 15.7678C43.0035 19.821 36.9149 23.898 30.7561 27.9044C30.3814 28.1387 29.585 28.1152 29.2103 27.8576C23.0982 23.8745 17.0324 19.8211 10.9671 15.7912C10.031 15.1588 10.031 14.7373 10.9671 14.0347C17.0324 9.51276 23.1216 5.01372 29.2103 0.515248C29.421 0.32793 29.7018 0.187339 30.0061 0ZM30.7326 21.8366C30.7327 22.1879 30.7793 22.5626 30.6623 22.8671C30.5687 23.1014 30.2169 23.3823 30.0061 23.3823C29.772 23.3822 29.4445 23.1013 29.3509 22.8671C29.2338 22.5626 29.2806 22.1879 29.2806 21.8366V2.27275C23.4729 6.58379 17.8989 10.7073 12.302 14.8778C12.5362 15.0652 12.6302 15.1822 12.7707 15.2759C18.2974 18.931 23.8242 22.5865 29.3274 26.2884C29.9829 26.7331 30.3807 26.4748 30.8723 26.1235C36.0008 22.7028 41.1531 19.3056 46.2816 15.9083C46.7265 15.6037 47.1717 15.2995 47.7571 14.9012C42.0901 10.684 36.5402 6.56028 30.7326 2.24933V21.8366Z" fill="#090402"/>
</svg>
