<svg width="54" height="54" viewBox="0 0 54 54" fill="none" xmlns="http://www.w3.org/2000/svg">
<path d="M39.1975 38.9568C39.1975 40.3285 39.2422 41.5631 39.1752 42.7519C39.1528 43.1406 38.7503 43.5063 38.5491 43.8721C38.3255 43.5063 37.9006 43.1406 37.9006 42.7519C37.8335 40.42 37.8335 38.1109 37.9006 35.779C37.9006 35.4132 38.3478 35.0703 38.5938 34.7045C38.795 35.0474 39.1304 35.3675 39.1975 35.7333C39.3093 36.282 39.2199 36.8535 39.2199 37.4936C43.7143 37.4936 48.0969 37.4936 52.5466 37.4936C52.5466 34.3158 52.5466 31.1837 52.5466 27.9831C48.1193 27.9831 43.7366 27.9831 39.1975 27.9831C39.1975 28.6232 39.2646 29.2862 39.1752 29.9035C39.1304 30.2235 38.7503 30.475 38.5267 30.7722C38.3031 30.475 37.923 30.2007 37.8783 29.8806C37.4981 26.6342 37.5876 26.5428 40.718 26.5428C44.2286 26.5428 47.7168 26.5428 51.2273 26.5428C51.6298 26.5428 52.0323 26.5428 52.5242 26.5428C52.5242 18.1295 52.5242 9.83065 52.5242 1.4403C47.1801 1.4403 41.8584 1.4403 36.4919 1.4403C36.4919 7.43014 36.4919 13.3514 36.4919 19.4327C38.0348 19.4327 39.5553 19.4327 41.0534 19.4327C41.5677 19.4327 42.2609 19.3412 42.1491 20.1185C42.1043 20.3929 41.4112 20.7815 41.0087 20.7815C37.4981 20.8273 34.0099 20.8273 30.4994 20.7815C30.0969 20.7815 29.3814 20.3929 29.3366 20.1185C29.2472 19.3641 29.9404 19.4327 30.4547 19.4327C31.9304 19.4327 33.4286 19.4327 34.9938 19.4327C34.9938 13.42 34.9938 7.49873 34.9938 1.46317C29.7168 1.46317 24.4174 1.46317 19.0286 1.46317C19.0286 7.36156 19.0286 13.3285 19.0286 19.4327C20.5491 19.4327 22.0696 19.387 23.5901 19.4555C23.9702 19.4784 24.3503 19.8442 24.7304 20.05C24.3503 20.3014 23.9702 20.7815 23.5901 20.7815C20.0124 20.8273 16.4348 20.8273 12.8571 20.7815C12.4994 20.7815 12.1416 20.3472 11.8062 20.0957C12.164 19.8671 12.5217 19.4784 12.8795 19.4555C14.4 19.387 15.9205 19.4327 17.5081 19.4327C17.5081 13.42 17.5081 7.49873 17.5081 1.46317C12.2087 1.46317 6.90932 1.46317 1.49814 1.46317C1.49814 7.38442 1.49814 13.3285 1.49814 19.4327C2.88447 19.4327 4.27081 19.4098 5.63478 19.4555C6.19379 19.4784 7.13292 19.1126 7.13292 20.0957C7.13292 21.1702 6.17143 20.7815 5.5677 20.8044C4.22609 20.8501 2.90683 20.8273 1.47578 20.8273C1.47578 22.7477 1.47578 24.5995 1.47578 26.5428C4.20373 26.5428 6.88696 26.5428 9.57019 26.5428C12.6783 26.5428 12.6783 26.5428 12.6783 29.7434C12.6783 30.2007 12.7453 30.6808 12.6335 31.1152C12.5665 31.3895 12.2311 31.5724 12.0298 31.801C11.8062 31.5495 11.3814 31.3438 11.359 31.0694C11.2696 30.0864 11.3366 29.1033 11.3366 28.0059C8.04969 28.0059 4.78509 28.0059 1.47578 28.0059C1.47578 31.8239 1.47578 35.5961 1.47578 39.4826C4.71801 39.4826 7.96025 39.4826 11.3366 39.4826C11.3366 38.5224 11.2696 37.5851 11.359 36.6478C11.4037 36.3048 11.8062 36.0076 12.0298 35.6876C12.2534 35.9848 12.6335 36.282 12.6559 36.602C12.7006 39.0483 12.7006 41.4716 12.6559 43.9179C12.6559 44.2379 12.2087 44.5351 11.9627 44.8323C11.7615 44.5351 11.4037 44.2379 11.3814 43.895C11.2919 42.9577 11.359 42.0203 11.359 41.0144C8.02733 41.0144 4.80745 41.0144 1.49814 41.0144C1.49814 44.8323 1.49814 48.6274 1.49814 52.514C4.74037 52.514 7.98261 52.514 11.359 52.514C11.359 51.5766 11.2919 50.6164 11.3814 49.6791C11.4261 49.3362 11.8286 49.0389 12.0522 48.7189C12.2534 49.0161 12.6335 49.3133 12.6559 49.6334C12.7453 50.5707 12.6783 51.508 12.6783 52.514C21.0634 52.514 29.359 52.514 37.8112 52.514C37.8112 51.2794 37.8112 50.0677 37.8112 48.8789C37.8112 48.3531 37.7888 47.6444 38.5267 47.7815C38.795 47.8273 39.1081 48.4903 39.1304 48.8789C39.2199 50.0906 39.1081 51.3251 39.1752 52.5368C39.2422 53.6113 38.8621 54 37.7665 54C31.3491 53.9543 24.954 53.9771 18.5366 53.9771C12.8348 53.9771 7.13292 53.9543 1.43106 54C0.357764 54 0 53.6799 0 52.5826C0.0223602 35.5047 0.0223602 18.4496 0 1.37172C0.0447205 0.34293 0.402484 0 1.47578 0C18.5143 0.022862 35.5304 0.022862 52.5689 0C53.6422 0 54 0.34293 54 1.4403C53.9776 13.4886 53.9776 25.514 54 37.5622C54 38.6825 53.6199 39.0025 52.5689 38.9797C48.1416 38.9111 43.759 38.9568 39.1975 38.9568Z" fill="#4F4B47"/>
</svg>
