<svg width="19" height="19" viewBox="0 0 19 19" fill="none" xmlns="http://www.w3.org/2000/svg">
<path d="M13.4004 9.55134L13.8504 9.10134C13.8502 9.10149 13.8505 9.10119 13.8504 9.10134C13.8505 9.10119 13.8511 9.10064 13.8512 9.10049L15.4386 7.51309L17.0269 5.92484L17.8992 5.05254C18.1791 4.77259 18.3333 4.40034 18.3333 4.00443C18.3333 3.60851 18.1791 3.23626 17.8992 2.95636L15.377 0.434197C15.0971 0.154257 14.7248 3.14575e-05 14.3289 3.14575e-05C13.933 3.14575e-05 13.5607 0.154217 13.2808 0.434197L8.78199 4.93294L5.72839 1.87931C5.21719 1.36812 4.57654 1.00425 3.8756 0.827036L0.66877 0.0163964C0.485435 -0.0299735 0.291075 0.0235564 0.157335 0.157371C0.02356 0.291111 -0.029975 0.485366 0.0164 0.668771L0.827075 3.8756C1.00425 4.57649 1.36813 5.21719 1.87931 5.72839L4.93294 8.78199L0.434125 13.2808C0.154185 13.5607 0 13.933 0 14.3289C0 14.7248 0.154185 15.097 0.43416 15.377L2.95632 17.8991C3.23629 18.1791 3.60851 18.3333 4.00447 18.3333C4.40039 18.3333 4.77259 18.1791 5.05254 17.8992L7.51169 15.4401C7.51209 15.4397 7.51244 15.4393 7.51284 15.4389C7.51324 15.4386 7.51359 15.4382 7.51394 15.4378L9.55134 13.4004L13.6871 17.5362C14.2177 18.0668 14.9146 18.3321 15.6116 18.3321C16.3086 18.3321 17.0055 18.0668 17.5361 17.5362C18.5974 16.475 18.5974 14.7483 17.5361 13.6871L13.4004 9.55134ZM1.86849 3.61234L1.27854 1.27857L3.61231 1.86857C4.12547 1.99826 4.59449 2.26467 4.96874 2.63892L5.39224 3.06238L3.06231 5.39229L2.63885 4.96884C2.2646 4.59454 1.99822 4.1255 1.86849 3.61234ZM3.82189 6.15184L6.15179 3.82192L8.02239 5.69254L5.69249 8.02244L3.82189 6.15184ZM4.00447 17.2591C3.89547 17.2591 3.79303 17.2166 3.71593 17.1396L1.19374 14.6174C1.11669 14.5404 1.07425 14.4379 1.07425 14.3289C1.07425 14.2199 1.11669 14.1174 1.19374 14.0403L14.0403 1.19374C14.1174 1.11668 14.2199 1.07422 14.3289 1.07422C14.4379 1.07422 14.5404 1.11668 14.6174 1.19374L17.1396 3.71594C17.2167 3.79296 17.2591 3.89544 17.2591 4.00443C17.2591 4.11343 17.2167 4.21589 17.1396 4.29299L16.6472 4.78539L15.0088 3.14692C14.7991 2.93716 14.459 2.93716 14.2492 3.14692C14.0394 3.35664 14.0394 3.69674 14.2492 3.9065L15.8876 5.54499L15.0591 6.37349L14.2147 5.52909C14.005 5.31934 13.6649 5.31939 13.4551 5.52909C13.2454 5.73889 13.2454 6.07894 13.4551 6.28869L14.2996 7.13304L13.471 7.96159L11.8326 6.32309C11.6228 6.11334 11.2828 6.11334 11.073 6.32309C10.8633 6.53284 10.8633 6.87294 11.073 7.08269L12.7115 8.72114L11.883 9.54964L11.0385 8.70524C10.8288 8.49554 10.4887 8.49554 10.279 8.70524C10.0692 8.91499 10.0692 9.25509 10.279 9.46484L11.1233 10.3092L10.3092 11.1233L8.67079 9.48494C8.46099 9.27514 8.12094 9.27514 7.91119 9.48494C7.70144 9.69464 7.70144 10.0347 7.91119 10.2445L9.54964 11.8829L8.72109 12.7114L7.87674 11.8671C7.66704 11.6573 7.32694 11.6573 7.11714 11.8671C6.90739 12.0768 6.90739 12.4169 7.11714 12.6266L7.96154 13.471L7.13304 14.2995L5.49464 12.6611C5.28489 12.4514 4.94479 12.4514 4.73504 12.6611C4.52529 12.8708 4.52529 13.2109 4.73504 13.4207L6.37344 15.0591L5.54494 15.8876L4.70054 15.0432C4.49084 14.8335 4.15074 14.8335 3.94098 15.0432C3.73123 15.253 3.73123 15.5931 3.94098 15.8028L4.78534 16.6472L4.29299 17.1396C4.21589 17.2167 4.11343 17.2591 4.00447 17.2591ZM10.6868 12.2649C10.6876 12.2642 10.6883 12.2635 10.689 12.2627C10.6898 12.262 10.6905 12.2613 10.6912 12.2605L12.2622 10.6896C12.2624 10.6894 12.2626 10.6892 12.2628 10.689C12.2629 10.6887 12.2632 10.6886 12.2634 10.6884L12.6408 10.3109L14.9168 12.5869L12.5869 14.9168L10.3109 12.6408L10.6868 12.2649ZM16.7766 16.7766C16.1342 17.4189 15.089 17.4189 14.4466 16.7766L13.3465 15.6763L15.6764 13.3464L16.7766 14.4466C17.4189 15.089 17.4189 16.1342 16.7766 16.7766Z" fill="#F94A3D"/>
</svg>
