<svg width="45" height="50" viewBox="0 0 45 50" fill="none" xmlns="http://www.w3.org/2000/svg">
<path d="M31.3291 14.6724C31.5711 14.6731 31.8079 14.6021 32.0094 14.4682C32.211 14.3343 32.3683 14.1436 32.4615 13.9203C32.5546 13.697 32.5794 13.451 32.5326 13.2136C32.4859 12.9761 32.3698 12.7579 32.1989 12.5865C32.0281 12.4152 31.8103 12.2983 31.573 12.2508C31.3357 12.2033 31.0897 12.2273 30.866 12.3197C30.6424 12.4122 30.4512 12.5689 30.3167 12.77C30.1822 12.9712 30.1104 13.2077 30.1104 13.4497C30.1103 13.7733 30.2386 14.0837 30.4671 14.3129C30.6955 14.5421 31.0055 14.6713 31.3291 14.6724ZM31.3291 13.0122C31.4167 13.0114 31.5026 13.0368 31.5758 13.085C31.649 13.1332 31.7062 13.2021 31.74 13.2829C31.7739 13.3637 31.783 13.4528 31.7661 13.5388C31.7492 13.6247 31.7071 13.7037 31.6451 13.7657C31.5831 13.8277 31.5041 13.8698 31.4181 13.8867C31.3322 13.9036 31.2431 13.8945 31.1623 13.8606C31.0815 13.8268 31.0126 13.7696 30.9644 13.6964C30.9162 13.6232 30.8908 13.5373 30.8916 13.4497C30.8926 13.334 30.939 13.2233 31.0209 13.1415C31.1027 13.0596 31.2134 13.0132 31.3291 13.0122Z" fill="#090402"/>
<path d="M27.1222 13.4497C27.1241 14.2867 27.3787 15.1036 27.8526 15.7935L23.5558 25.2935H20.2901C20.1865 25.2935 20.0872 25.3346 20.0139 25.4079C19.9407 25.4811 19.8995 25.5805 19.8995 25.6841C19.8995 25.7877 19.9407 25.887 20.0139 25.9603C20.0872 26.0336 20.1865 26.0747 20.2901 26.0747H23.2159L19.3097 34.6685C18.9549 34.8119 18.6389 35.0368 18.3872 35.325C18.1355 35.6132 17.9552 35.9566 17.8609 36.3274C17.7665 36.6983 17.7608 37.0861 17.8442 37.4596C17.9276 37.833 18.0978 38.1816 18.3409 38.4771C18.508 38.6701 18.7028 38.8373 18.919 38.9731L18.0636 40.8638C18.0213 40.9581 18.0181 41.0653 18.0547 41.1619C18.0913 41.2586 18.1647 41.3368 18.2589 41.3794C18.3092 41.4023 18.3638 41.4143 18.419 41.4146C18.4942 41.4144 18.5677 41.3926 18.6307 41.3517C18.6938 41.3108 18.7437 41.2526 18.7745 41.1841L19.6339 39.2896C19.9942 39.3882 20.3724 39.4023 20.739 39.3308C21.1056 39.2593 21.4508 39.104 21.7476 38.8772C22.0444 38.6503 22.2848 38.358 22.45 38.023C22.6153 37.688 22.7009 37.3194 22.7003 36.9458C22.7008 36.7858 22.685 36.6261 22.6534 36.4692L27.3409 26.0981H30.9425V28.1099C30.9425 28.2135 30.9836 28.3128 31.0569 28.3861C31.1301 28.4593 31.2295 28.5005 31.3331 28.5005C31.4367 28.5005 31.5361 28.4593 31.6093 28.3861C31.6826 28.3128 31.7237 28.2135 31.7237 28.1099V23.2974C31.7237 23.1938 31.6826 23.0944 31.6093 23.0212C31.5361 22.9479 31.4367 22.9067 31.3331 22.9067C31.2295 22.9067 31.1301 22.9479 31.0569 23.0212C30.9836 23.0944 30.9425 23.1938 30.9425 23.2974V25.3091H27.6925L31.1651 17.6333H31.5128L34.9893 25.3091H33.3487C33.2451 25.3091 33.1458 25.3502 33.0725 25.4235C32.9993 25.4968 32.9581 25.5961 32.9581 25.6997C32.9581 25.8033 32.9993 25.9027 33.0725 25.9759C33.1458 26.0492 33.2451 26.0903 33.3487 26.0903H35.3253L40.0128 36.4614C39.9814 36.6183 39.9656 36.778 39.9659 36.938C39.9669 37.5841 40.2241 38.2035 40.681 38.6604C41.1379 39.1173 41.7573 39.3745 42.4034 39.3755C42.6159 39.3749 42.8274 39.346 43.0323 39.2896L43.8917 41.1841C43.9225 41.2526 43.9724 41.3108 44.0355 41.3517C44.0985 41.3926 44.172 41.4144 44.2472 41.4146C44.3024 41.4143 44.357 41.4023 44.4073 41.3794C44.5015 41.3368 44.5749 41.2586 44.6115 41.1619C44.6481 41.0653 44.6449 40.9581 44.6026 40.8638L43.7472 38.9731C43.9683 38.8394 44.1673 38.672 44.337 38.4771C44.5742 38.1811 44.7391 37.8339 44.8186 37.463C44.898 37.0921 44.8898 36.7078 44.7946 36.3406C44.6994 35.9735 44.5199 35.6336 44.2702 35.3481C44.0205 35.0625 43.7077 34.8392 43.3565 34.6958L39.4815 26.1411H42.7472C42.8508 26.1411 42.9501 26.1 43.0234 26.0267C43.0966 25.9534 43.1378 25.8541 43.1378 25.7505C43.1378 25.6469 43.0966 25.5475 43.0234 25.4743C42.9501 25.401 42.8508 25.3599 42.7472 25.3599H39.1222L34.8058 15.7935C35.1656 15.2608 35.3981 14.6524 35.485 14.0155C35.5719 13.3785 35.5111 12.7301 35.3071 12.1205C35.1032 11.5109 34.7616 10.9564 34.3088 10.5C33.8561 10.0436 33.3044 9.69761 32.6964 9.48877V7.24658C32.6964 6.89745 32.5577 6.56262 32.3108 6.31574C32.0639 6.06887 31.7291 5.93018 31.38 5.93018C30.9764 5.94022 30.5924 6.10608 30.3084 6.39299C30.0244 6.6799 29.8625 7.06559 29.8565 7.46924V8.39893C29.8565 8.50253 29.8977 8.60188 29.9709 8.67514C30.0442 8.7484 30.1436 8.78955 30.2472 8.78955C30.3508 8.78955 30.4501 8.7484 30.5234 8.67514C30.5966 8.60188 30.6378 8.50253 30.6378 8.39893V7.46924C30.6378 7.26893 30.7171 7.07677 30.8584 6.93476C30.9996 6.79275 31.1914 6.71246 31.3917 6.71143C31.5336 6.71143 31.6697 6.76781 31.7701 6.86817C31.8705 6.96853 31.9268 7.10465 31.9268 7.24658V9.30127C31.7328 9.27308 31.537 9.25872 31.3409 9.2583C30.7883 9.25521 30.2406 9.36132 29.7291 9.57053C29.2177 9.77973 28.7526 10.0879 28.3606 10.4774C27.9686 10.8668 27.6574 11.3299 27.4449 11.84C27.2323 12.3501 27.1227 12.8971 27.1222 13.4497ZM20.2472 38.5942C19.9185 38.595 19.597 38.4982 19.3234 38.3161C19.0497 38.134 18.8364 37.8747 18.7102 37.5712C18.5841 37.2677 18.5509 36.9336 18.6148 36.6112C18.6787 36.2888 18.8369 35.9926 19.0693 35.7602C19.3018 35.5278 19.5979 35.3696 19.9203 35.3056C20.2427 35.2417 20.5769 35.2749 20.8804 35.4011C21.1839 35.5272 21.4431 35.7406 21.6252 36.0142C21.8074 36.2878 21.9042 36.6093 21.9034 36.938C21.9039 37.1556 21.8614 37.3712 21.7784 37.5724C21.6953 37.7736 21.5734 37.9564 21.4195 38.1103C21.2656 38.2642 21.0828 38.3862 20.8816 38.4692C20.6804 38.5523 20.4648 38.5948 20.2472 38.5942ZM22.2003 35.5005C21.9758 35.1922 21.6821 34.9409 21.343 34.7665C21.0038 34.5922 20.6285 34.4997 20.2472 34.4966L28.4112 16.4692C28.9493 16.986 29.6154 17.35 30.3409 17.5239L22.2003 35.5005ZM35.9542 25.5474L32.3175 17.52C33.0439 17.3441 33.7101 16.9773 34.2472 16.4575L38.5167 25.8872L42.4229 34.481C42.0412 34.484 41.6654 34.5767 41.3261 34.7518C40.9868 34.9269 40.6935 35.1793 40.4698 35.4888L35.9542 25.5474ZM44.0909 36.938C44.0909 37.1558 44.0479 37.3715 43.9645 37.5727C43.881 37.7739 43.7586 37.9567 43.6044 38.1105C43.4502 38.2644 43.2672 38.3863 43.0658 38.4693C42.8644 38.5523 42.6486 38.5948 42.4308 38.5942C42.1022 38.5942 41.7811 38.4968 41.508 38.3142C41.2349 38.1316 41.0221 37.8721 40.8966 37.5685C40.7711 37.2649 40.7384 36.9309 40.8028 36.6088C40.8672 36.2866 41.0257 35.9908 41.2582 35.7588C41.4908 35.5268 41.787 35.369 42.1093 35.3054C42.4316 35.2417 42.7655 35.2752 43.0688 35.4014C43.3721 35.5277 43.6311 35.7411 43.813 36.0146C43.995 36.2881 44.0917 36.6095 44.0909 36.938ZM31.3292 10.0396C32.0041 10.0419 32.6632 10.2442 33.2231 10.6209C33.7831 10.9976 34.2189 11.5318 34.4754 12.1561C34.7319 12.7804 34.7976 13.4667 34.6642 14.1283C34.5308 14.7899 34.2044 15.3971 33.7261 15.8732C33.2477 16.3493 32.639 16.673 31.9768 16.8034C31.3146 16.9337 30.6287 16.8649 30.0056 16.6055C29.3825 16.3462 28.8502 15.908 28.4761 15.3463C28.1019 14.7846 27.9026 14.1246 27.9034 13.4497C27.9039 13.0007 27.993 12.5562 28.1655 12.1417C28.3381 11.7272 28.5907 11.3507 28.9089 11.034C29.2271 10.7172 29.6047 10.4663 30.02 10.2957C30.4353 10.125 30.8802 10.038 31.3292 10.0396Z" fill="#090402"/>
<path d="M28.4344 3.26996C28.3872 3.24643 28.3357 3.23273 28.283 3.22966C28.2303 3.2266 28.1775 3.23424 28.1279 3.25213C28.0782 3.27002 28.0327 3.29778 27.9941 3.33374C27.9555 3.3697 27.9246 3.41312 27.9032 3.46136L27.6415 4.02777C27.5925 4.1358 27.5044 4.22126 27.395 4.26693C27.2855 4.31259 27.1628 4.31507 27.0516 4.27386C26.2289 3.93669 25.3846 3.65482 24.5243 3.43011C20.0745 2.26219 15.3553 2.70248 11.1984 4.67339C7.04152 6.64429 3.71374 10.0193 1.80161 14.2036L1.72349 14.3871C1.72166 14.3949 1.72166 14.4029 1.72349 14.4106C1.31181 15.3312 0.970975 16.2819 0.703957 17.2543C-0.390814 21.2208 -0.204877 25.4318 1.23524 29.2864C2.67536 33.1409 5.29608 36.4422 8.72349 38.7192H8.74302C9.35637 39.1292 9.99285 39.5035 10.6493 39.8403C10.7544 39.8968 10.8337 39.9917 10.8707 40.1051C10.9078 40.2186 10.8999 40.3419 10.8485 40.4496L9.32505 43.7504C9.25401 43.9006 9.21342 44.0634 9.20562 44.2293C9.19783 44.3953 9.22299 44.5611 9.27965 44.7173C9.3363 44.8735 9.42334 45.0169 9.53572 45.1392C9.64811 45.2616 9.78362 45.3604 9.93443 45.4301L12.2782 46.5004C12.3289 46.5266 12.3852 46.54 12.4422 46.5395C12.5316 46.54 12.6185 46.5098 12.6883 46.454C12.7581 46.3981 12.8067 46.3201 12.8259 46.2328C12.8451 46.1455 12.8337 46.0542 12.7938 45.9743C12.7538 45.8943 12.6876 45.8305 12.6063 45.7934L10.2626 44.7192C10.1504 44.6665 10.0634 44.5719 10.0203 44.4558C9.97719 44.3396 9.98142 44.2112 10.0321 44.0981L11.5516 40.7934C11.6896 40.5036 11.7093 40.1714 11.6065 39.8673C11.5037 39.5632 11.2864 39.3111 11.0008 39.1645C10.4818 38.8966 9.97479 38.6059 9.4813 38.2934L10.3251 37.0434C10.357 37.0009 10.3799 36.9524 10.3925 36.9008C10.405 36.8492 10.4069 36.7955 10.398 36.7432C10.3891 36.6908 10.3696 36.6408 10.3407 36.5962C10.3118 36.5516 10.2742 36.5134 10.23 36.4839C10.1858 36.4543 10.1361 36.4341 10.0839 36.4245C10.0317 36.4148 9.978 36.4159 9.9262 36.4277C9.8744 36.4395 9.82555 36.4617 9.78264 36.493C9.73972 36.5243 9.70365 36.5641 9.67661 36.6098L8.84458 37.8598C8.25243 37.4482 7.68504 37.0022 7.14536 36.5239L9.33677 34.145C9.37926 34.109 9.41357 34.0644 9.4374 34.014C9.46123 33.9637 9.47403 33.9089 9.47495 33.8533C9.47587 33.7976 9.46488 33.7424 9.44272 33.6913C9.42056 33.6402 9.38773 33.5945 9.34645 33.5572C9.30517 33.5198 9.25639 33.4917 9.20337 33.4748C9.15034 33.4578 9.09431 33.4524 9.03902 33.4588C8.98372 33.4653 8.93045 33.4835 8.88277 33.5122C8.83509 33.541 8.7941 33.5796 8.76255 33.6254L6.57114 36.0082C6.05197 35.516 5.56158 34.9943 5.10239 34.4457L6.27427 33.5043C6.35476 33.4399 6.4065 33.3462 6.41821 33.2438C6.42991 33.1413 6.40064 33.0384 6.33677 32.9575C6.27288 32.8764 6.1795 32.8239 6.07703 32.8114C5.97456 32.799 5.87133 32.8276 5.78989 32.891L4.61802 33.8364C3.58757 32.4779 2.74775 30.9849 2.12193 29.3989L3.52818 28.8676C3.62556 28.8314 3.70455 28.7579 3.74777 28.6634C3.79099 28.5689 3.79491 28.4611 3.75865 28.3637C3.72238 28.2663 3.64892 28.1873 3.55442 28.1441C3.45992 28.1009 3.35212 28.097 3.25474 28.1332L1.83286 28.6684C1.5959 27.9888 1.39766 27.2963 1.23911 26.5942L4.02427 26.0239C4.07495 26.0136 4.12309 25.9935 4.16592 25.9645C4.20874 25.9355 4.24538 25.8983 4.27372 25.8551C4.30206 25.8119 4.32154 25.7634 4.33102 25.7126C4.3405 25.6618 4.3398 25.6096 4.32896 25.559C4.30737 25.4582 4.2468 25.37 4.16046 25.3137C4.07411 25.2573 3.96899 25.2374 3.86802 25.2582L1.07896 25.8325C0.949411 25.1246 0.860723 24.4099 0.813332 23.6918L2.32505 23.6332C2.42865 23.6281 2.52595 23.5819 2.59554 23.505C2.66514 23.4281 2.70132 23.3267 2.69614 23.2231C2.69096 23.1195 2.64484 23.0222 2.56792 22.9526C2.491 22.883 2.38959 22.8468 2.28599 22.852L0.778176 22.9223C0.734096 21.2183 0.92335 19.5164 1.34068 17.8637L2.78989 18.2543H2.89146C2.99506 18.2678 3.09976 18.2396 3.18254 18.1758C3.26532 18.1121 3.3194 18.0181 3.33286 17.9145C3.34633 17.8109 3.31809 17.7062 3.25436 17.6234C3.19063 17.5406 3.09662 17.4866 2.99302 17.4731L1.5438 17.0825C1.75067 16.3953 1.99451 15.7199 2.27427 15.059L4.88755 16.2309C4.93785 16.2538 4.99244 16.2658 5.04771 16.2661C5.1371 16.2665 5.22395 16.2363 5.29376 16.1805C5.36358 16.1247 5.41214 16.0466 5.43134 15.9593C5.45053 15.872 5.43921 15.7808 5.39925 15.7008C5.35929 15.6209 5.29312 15.557 5.21177 15.52L2.59458 14.3481C2.90203 13.6995 3.245 13.0683 3.62193 12.4575L4.8563 13.2934C4.89933 13.3218 4.94755 13.3414 4.9982 13.3511C5.04884 13.3608 5.1009 13.3604 5.15138 13.3499C5.20186 13.3393 5.24975 13.3189 5.2923 13.2898C5.33484 13.2606 5.3712 13.2234 5.39927 13.1801C5.45507 13.093 5.47407 12.9874 5.4521 12.8864C5.43013 12.7853 5.36899 12.6971 5.28208 12.6411L4.02818 11.8246C4.97831 10.4137 6.1164 9.13897 7.41099 8.03558L8.36411 9.20746C8.39635 9.24758 8.4362 9.28095 8.48137 9.30562C8.52654 9.3303 8.57614 9.34581 8.62732 9.35125C8.67851 9.3567 8.73026 9.35197 8.77961 9.33735C8.82896 9.32273 8.87494 9.2985 8.91489 9.26605C8.95502 9.23382 8.98838 9.19397 9.01306 9.1488C9.03774 9.10363 9.05325 9.05402 9.05869 9.00284C9.06414 8.95166 9.05941 8.8999 9.04479 8.85055C9.03017 8.8012 9.00594 8.75523 8.97349 8.71527L8.01646 7.54339C8.58438 7.10194 9.17644 6.69245 9.78989 6.31683L11.3524 9.00043C11.3868 9.06004 11.4364 9.1095 11.496 9.14379C11.5557 9.17809 11.6234 9.19601 11.6922 9.19574C11.761 9.19502 11.8284 9.17616 11.8876 9.14105C11.9762 9.08887 12.0407 9.00381 12.0671 8.90434C12.0934 8.80487 12.0794 8.69902 12.0282 8.6098L10.4657 5.9223C11.0984 5.57407 11.7505 5.26236 12.4188 4.98871L12.9657 6.39886C12.994 6.47228 13.0438 6.53542 13.1087 6.58003C13.1735 6.62464 13.2503 6.64863 13.329 6.64886C13.3768 6.64872 13.4243 6.64081 13.4696 6.62543C13.5177 6.60686 13.5616 6.57896 13.5989 6.54334C13.6361 6.50772 13.6659 6.46508 13.6866 6.41788C13.7073 6.37067 13.7185 6.31984 13.7194 6.26831C13.7204 6.21677 13.7112 6.16556 13.6922 6.11761L13.1454 4.70355C14.7529 4.12039 16.4324 3.75899 18.1376 3.62933L18.2235 5.14105C18.2295 5.24054 18.2732 5.33397 18.3459 5.40223C18.4185 5.4705 18.5144 5.50842 18.6141 5.50824H18.6375C18.737 5.50226 18.8305 5.45848 18.8987 5.38586C18.967 5.31324 19.0049 5.21728 19.0047 5.11761L18.9149 3.60199C19.6339 3.57465 20.354 3.5903 21.0711 3.64886L20.7665 6.75043C20.7567 6.8535 20.7882 6.95624 20.8541 7.03608C20.92 7.11592 21.015 7.16632 21.118 7.17621H21.1571C21.2549 7.1766 21.3492 7.14031 21.4216 7.07449C21.4939 7.00868 21.5389 6.91813 21.5477 6.82074L21.829 3.71136C22.5429 3.801 23.251 3.93143 23.95 4.10199L23.5594 5.55902C23.5332 5.65899 23.5477 5.76527 23.5997 5.85459C23.6516 5.94391 23.7369 6.00899 23.8368 6.03558C23.8691 6.0409 23.9021 6.0409 23.9344 6.03558C24.0231 6.03839 24.1102 6.0109 24.1812 5.95765C24.2522 5.9044 24.3029 5.82856 24.325 5.74261L24.7157 4.28558C25.4146 4.48392 26.1019 4.72127 26.7743 4.99652C27.0718 5.11675 27.4042 5.11721 27.702 4.99779C27.9999 4.87837 28.2399 4.64835 28.3719 4.3559L28.6336 3.78949C28.6551 3.74235 28.6669 3.69143 28.6685 3.63968C28.67 3.58793 28.6613 3.53638 28.6427 3.48804C28.6242 3.4397 28.5962 3.39552 28.5605 3.35808C28.5247 3.32065 28.4819 3.29069 28.4344 3.26996ZM37.1493 10.7426C37.1067 10.8364 37.103 10.9433 37.1388 11.0398C37.1747 11.1364 37.2472 11.2149 37.3407 11.2582C37.3915 11.2841 37.4477 11.2975 37.5047 11.2973C37.5795 11.2975 37.6527 11.2762 37.7157 11.2361C37.7787 11.1959 37.8288 11.1385 37.8602 11.0707L40.2704 5.84027C40.4085 5.5387 40.4215 5.19468 40.3066 4.88353C40.1917 4.57238 39.9581 4.31945 39.6571 4.18011L30.8368 0.113708C30.6874 0.0452282 30.526 0.00687508 30.3618 0.000842589C30.1975 -0.00518991 30.0337 0.0212167 29.8797 0.0785514C29.7253 0.134423 29.5836 0.220554 29.4628 0.331899C29.3421 0.443244 29.2448 0.577563 29.1766 0.726989L28.786 1.53558C28.7644 1.58226 28.7523 1.63273 28.7503 1.6841C28.7482 1.73548 28.7563 1.78675 28.7741 1.83499C28.7919 1.88323 28.819 1.9275 28.8539 1.96527C28.8887 2.00304 28.9307 2.03357 28.9774 2.05511C29.0241 2.07666 29.0745 2.0888 29.1259 2.09084C29.1773 2.09288 29.2286 2.08478 29.2768 2.06701C29.325 2.04924 29.3693 2.02213 29.4071 1.98725C29.4449 1.95237 29.4754 1.91039 29.4969 1.86371L29.868 1.05511C29.9216 0.942807 30.0169 0.855888 30.1336 0.812926C30.1905 0.788861 30.2516 0.77646 30.3133 0.77646C30.3751 0.77646 30.4362 0.788861 30.493 0.812926L39.329 4.88324C39.3852 4.90851 39.4358 4.94471 39.478 4.98974C39.5201 5.03477 39.5528 5.08773 39.5742 5.14553C39.5957 5.20333 39.6054 5.26482 39.6029 5.32642C39.6003 5.38802 39.5856 5.4485 39.5594 5.50433L37.1493 10.7426ZM28.1219 31.2621C28.0281 31.2196 27.9213 31.2159 27.8247 31.2517C27.7281 31.2876 27.6496 31.3601 27.6063 31.4535L19.7235 48.5551C19.6701 48.6676 19.5747 48.7546 19.4579 48.7977C19.3411 48.8408 19.2121 48.8364 19.0985 48.7856L14.411 46.6254C14.3167 46.5819 14.209 46.5776 14.1116 46.6135C14.0141 46.6494 13.935 46.7226 13.8915 46.8168C13.8479 46.9111 13.8437 47.0188 13.8796 47.1162C13.9155 47.2137 13.9886 47.2929 14.0829 47.3364L18.7704 49.4965C19.0721 49.6336 19.4157 49.6461 19.7265 49.5313C20.0374 49.4164 20.2904 49.1835 20.4305 48.8832L28.3133 31.7817C28.335 31.735 28.3472 31.6845 28.3493 31.6331C28.3514 31.5817 28.3434 31.5304 28.3256 31.4821C28.3078 31.4339 28.2806 31.3896 28.2457 31.3518C28.2107 31.3141 28.1687 31.2836 28.1219 31.2621Z" fill="#090402"/>
<path d="M15.7077 29.9495C15.6798 30.0108 15.6393 30.0654 15.5888 30.1098C15.5383 30.1543 15.479 30.1875 15.4147 30.2074C15.3563 30.2275 15.2941 30.2345 15.2326 30.2278C15.1711 30.221 15.1119 30.2007 15.0593 30.1683C13.3406 29.1588 12.0052 27.6078 11.2624 25.7581C11.2241 25.6618 11.149 25.5846 11.0538 25.5436C10.9586 25.5026 10.8509 25.5011 10.7546 25.5394C10.6582 25.5777 10.5811 25.6528 10.54 25.748C10.499 25.8432 10.4975 25.9509 10.5358 26.0472C11.3445 28.0583 12.7964 29.7451 14.6647 30.8441C14.8117 30.9311 14.9754 30.9859 15.1451 31.0048C15.3149 31.0236 15.4867 31.0061 15.6491 30.9535C15.82 30.903 15.9781 30.8166 16.1128 30.7C16.2476 30.5835 16.3558 30.4395 16.4304 30.2777L23.5163 14.8714C23.5868 14.7107 23.6231 14.5371 23.6231 14.3617C23.6231 14.1862 23.5868 14.0126 23.5163 13.8519C23.4527 13.6979 23.3587 13.5584 23.2399 13.4416C23.1211 13.3248 22.9799 13.2332 22.8249 13.1722C21.2529 12.6208 19.5659 12.4808 17.9245 12.7654C16.283 13.05 14.7417 13.7498 13.447 14.7982C12.1523 15.8466 11.1474 17.2088 10.5278 18.7552C9.90815 20.3016 9.69442 21.9808 9.90693 23.6331C9.91334 23.6844 9.92979 23.734 9.95535 23.7789C9.9809 23.8238 10.0151 23.8633 10.0559 23.8951C10.1383 23.9592 10.2428 23.9879 10.3464 23.9749C10.3977 23.9685 10.4472 23.9521 10.4921 23.9265C10.5371 23.901 10.5766 23.8668 10.6083 23.826C10.64 23.7852 10.6634 23.7385 10.6771 23.6887C10.6908 23.6388 10.6946 23.5868 10.6882 23.5355C10.4942 22.0177 10.691 20.4756 11.26 19.0552C11.829 17.6349 12.7513 16.3834 13.9395 15.4193C15.1277 14.4553 16.5424 13.8107 18.0495 13.5467C19.5567 13.2826 21.1063 13.4078 22.5515 13.9105C22.61 13.9306 22.6636 13.963 22.7087 14.0054C22.7539 14.0479 22.7895 14.0994 22.8132 14.1566C22.8403 14.2181 22.8543 14.2846 22.8543 14.3519C22.8543 14.4191 22.8403 14.4857 22.8132 14.5472L15.7077 29.9495Z" fill="#090402"/>
</svg>
