<svg width="50" height="50" viewBox="0 0 50 50" fill="none" xmlns="http://www.w3.org/2000/svg">
<path d="M44.5313 0C43.2173 0.0018953 41.9478 0.585968 40.9551 1.64537C39.9624 2.70476 39.3127 4.16866 39.125 5.76923H6.25V0.961538C6.25 0.706523 6.16769 0.461952 6.02118 0.281628C5.87466 0.101305 5.67595 0 5.46875 0C4.01886 0.00203592 2.62882 0.711823 1.60359 1.97365C0.578356 3.23547 0.00165419 4.94628 0 6.73077L0 43.2692C0.00165419 45.0537 0.578356 46.7645 1.60359 48.0264C2.62882 49.2882 4.01886 49.998 5.46875 50H44.5313C45.9811 49.998 47.3712 49.2882 48.3964 48.0264C49.4216 46.7645 49.9983 45.0537 50 43.2692V6.73077C49.9983 4.94628 49.4216 3.23547 48.3964 1.97365C47.3712 0.711823 45.9811 0.00203592 44.5313 0ZM44.5313 48.0769C43.7587 48.0769 43.0034 47.795 42.3611 47.2667C41.7187 46.7384 41.218 45.9875 40.9223 45.1091C40.6267 44.2306 40.5493 43.2639 40.7001 42.3313C40.8508 41.3987 41.2228 40.542 41.7691 39.8697C42.3154 39.1973 43.0114 38.7394 43.7692 38.5539C44.5269 38.3684 45.3123 38.4636 46.0261 38.8275C46.7399 39.1914 47.35 39.8076 47.7792 40.5982C48.2084 41.3888 48.4375 42.3184 48.4375 43.2692C48.4363 44.5438 48.0243 45.7658 47.292 46.6671C46.5597 47.5684 45.5669 48.0754 44.5313 48.0769ZM44.5313 36.5385C43.4443 36.5371 42.3818 36.9348 41.4795 37.6806C40.5772 38.4265 39.8762 39.4866 39.4661 40.7255C39.056 41.9643 38.9555 43.3256 39.1774 44.6352C39.3993 45.9447 39.9335 47.1431 40.7117 48.0769H5.46875C4.43275 48.0769 3.43918 47.5704 2.70661 46.6688C1.97405 45.7672 1.5625 44.5443 1.5625 43.2692C1.5625 41.9942 1.97405 40.7713 2.70661 39.8697C3.43918 38.9681 4.43275 38.4615 5.46875 38.4615C5.67595 38.4615 5.87466 38.3602 6.02118 38.1799C6.16769 37.9996 6.25 37.755 6.25 37.5V10.5769C6.25 10.3219 6.16769 10.0773 6.02118 9.89701C5.87466 9.71669 5.67595 9.61538 5.46875 9.61538C5.26155 9.61538 5.06284 9.71669 4.91632 9.89701C4.76981 10.0773 4.6875 10.3219 4.6875 10.5769V36.6067C3.49952 36.8183 2.40125 37.5056 1.5625 38.5625V6.73077C1.56349 5.62283 1.87487 4.5492 2.44414 3.69093C3.0134 2.83265 3.80572 2.24223 4.6875 2.01923V6.73077C4.6875 6.98579 4.76981 7.23036 4.91632 7.41068C5.06284 7.591 5.26155 7.69231 5.46875 7.69231H39.0625V35.5769C39.0625 35.8319 39.1448 36.0765 39.2913 36.2568C39.4378 36.4372 39.6365 36.5385 39.8438 36.5385C40.051 36.5385 40.2497 36.4372 40.3962 36.2568C40.5427 36.0765 40.625 35.8319 40.625 35.5769V6.73077C40.625 5.45569 41.0366 4.23283 41.7691 3.33122C42.5017 2.4296 43.4952 1.92308 44.5313 1.92308C45.5673 1.92308 46.5608 2.4296 47.2934 3.33122C48.026 4.23283 48.4375 5.45569 48.4375 6.73077V38.5683C47.9297 37.9257 47.3224 37.4151 46.6514 37.0664C45.9805 36.7178 45.2595 36.5383 44.5313 36.5385Z" fill="#090402" fill-opacity="0.74"/>
<path d="M6.00822 0.961426C6.0082 0.786751 5.95162 0.618838 5.85071 0.494629C5.74971 0.370316 5.61237 0.299805 5.46875 0.299805C4.08244 0.30184 2.75368 0.980707 1.77396 2.18652C0.824809 3.35471 0.27837 4.92522 0.243747 6.57178L0.241778 6.73096V43.269C0.243392 44.9733 0.794267 46.6077 1.77396 47.8135C2.75375 49.0194 4.08274 49.6982 5.46914 49.7002H44.5309C45.9173 49.6982 47.2463 49.0194 48.226 47.8135C49.1752 46.6453 49.7216 45.0748 49.7563 43.4282L49.7582 43.269V6.73096C49.7566 5.02671 49.2057 3.39231 48.226 2.18652C47.2463 0.980707 45.9176 0.30184 44.5313 0.299805C43.2751 0.3017 42.0616 0.860213 41.1129 1.87256C40.1642 2.88498 39.5438 4.28385 39.3645 5.8125L39.3342 6.06934H6.00822V0.961426ZM48.4375 43.269C48.4375 42.3182 48.2083 41.3887 47.7791 40.5981C47.3767 39.857 46.8154 39.2688 46.1587 38.8984L46.026 38.8276C45.3123 38.4638 44.527 38.3683 43.7693 38.5537L43.6279 38.5918C42.9251 38.7974 42.2815 39.2393 41.7693 39.8696L41.6689 39.998C41.1774 40.6495 40.8415 41.4568 40.7002 42.3311L40.6746 42.5063C40.56 43.3842 40.6451 44.2853 40.9223 45.1089C41.218 45.9874 41.7188 46.7383 42.3612 47.2666C42.9634 47.7619 43.6648 48.0408 44.3867 48.0737L44.5313 48.0771C45.5669 48.0756 46.5597 47.5683 47.292 46.667C48.0243 45.7657 48.4363 44.5436 48.4375 43.269ZM39.0625 35.5771V7.69238H5.46875V7.39209H39.3043V35.5771C39.3043 35.7518 39.3609 35.9198 39.4618 36.0439C39.5628 36.1682 39.7001 36.2383 39.8438 36.2383V36.5386L39.7666 36.5337C39.6133 36.515 39.4679 36.4409 39.3488 36.3208L39.2913 36.2568C39.1631 36.099 39.0842 35.892 39.0664 35.6719L39.0625 35.5771ZM4.6875 6.73096V2.01904C3.80573 2.24204 3.01343 2.83265 2.44416 3.69092L2.3406 3.85449C1.83733 4.6837 1.56343 5.69227 1.5625 6.73096V38.5625C2.40124 37.5056 3.49952 36.8185 4.6875 36.6069V10.5771C4.6875 10.3221 4.76977 10.0773 4.91628 9.89697C5.0628 9.71665 5.26155 9.61523 5.46875 9.61523C5.67595 9.61523 5.8747 9.71665 6.02122 9.89697C6.16773 10.0773 6.25 10.3221 6.25 10.5771V37.5L6.24606 37.5952C6.22828 37.8152 6.14931 38.022 6.02122 38.1797L5.96373 38.2437C5.82471 38.3838 5.65003 38.4614 5.46875 38.4614C4.4328 38.4614 3.43936 38.9681 2.70681 39.8696L2.57293 40.0425C1.92418 40.9243 1.56254 42.0738 1.5625 43.269C1.5625 44.5441 1.97425 45.7673 2.70681 46.6689C3.39356 47.5141 4.30963 48.0118 5.27501 48.0708L5.46875 48.0771H40.7116C39.9821 47.2017 39.4671 46.0935 39.2228 44.8794L39.1775 44.6353C38.9695 43.4075 39.0447 42.1342 39.3929 40.959L39.4661 40.7256C39.8506 39.5641 40.4909 38.5598 41.3129 37.8242L41.4795 37.6807C42.3818 36.9348 43.4443 36.5372 44.5313 36.5386L44.6679 36.5405C45.3496 36.5614 46.0224 36.7396 46.6513 37.0664C47.3223 37.415 47.9297 37.9258 48.4375 38.5684V6.73096C48.4375 5.45588 48.0258 4.23267 47.2932 3.33105C46.5606 2.42956 45.5672 1.92285 44.5313 1.92285C43.4953 1.92285 42.5019 2.42956 41.7693 3.33105L41.6354 3.50391C40.9866 4.38583 40.625 5.53559 40.625 6.73096V35.5771L40.6211 35.6719C40.6033 35.892 40.5244 36.099 40.3962 36.2568L40.3387 36.3208C40.1997 36.4609 40.025 36.5386 39.8438 36.5386V36.2383C39.9874 36.2383 40.1247 36.1682 40.2257 36.0439C40.3266 35.9198 40.3832 35.7518 40.3832 35.5771V6.73096C40.3832 5.37559 40.8207 4.07587 41.5988 3.11816C42.3769 2.16063 43.4317 1.62305 44.5313 1.62305C45.6308 1.62305 46.6856 2.16063 47.4637 3.11816C48.2418 4.07587 48.6793 5.37559 48.6793 6.73096V39.3032L48.2646 38.7783C47.7795 38.1645 47.1992 37.6765 46.558 37.3433C45.9167 37.01 45.2275 36.8382 44.5313 36.8384H44.5309C43.4918 36.8371 42.4761 37.2174 41.6138 37.9302C40.7514 38.643 40.0815 39.656 39.6898 40.8394C39.2981 42.0226 39.2023 43.3226 39.4141 44.5732C39.626 45.8239 40.1362 46.969 40.8798 47.8613L41.3098 48.377H5.46875C4.36922 48.377 3.31437 47.8394 2.53631 46.8818C1.75817 45.9241 1.32072 44.6244 1.32072 43.269C1.32076 41.9137 1.75821 40.6144 2.53631 39.6567C3.31437 38.6992 4.3692 38.1616 5.46875 38.1616C5.61237 38.1616 5.74971 38.0911 5.85071 37.9668C5.95162 37.8426 6.00822 37.6747 6.00822 37.5V10.5771C6.00822 10.4024 5.95166 10.2341 5.85071 10.1099C5.74971 9.98558 5.61235 9.91553 5.46875 9.91553C5.32515 9.91553 5.18779 9.98558 5.08679 10.1099C4.98584 10.2341 4.92928 10.4024 4.92928 10.5771V36.8667L4.72176 36.9038C3.58604 37.1061 2.5364 37.7631 1.73497 38.7729L1.32072 39.2949V6.73047C1.32177 5.55298 1.65249 4.41216 2.25712 3.50049C2.86178 2.58885 3.7032 1.9618 4.63907 1.7251L4.92928 1.65186V6.73096C4.92932 6.90561 4.98588 7.07356 5.08679 7.19775C5.18779 7.32206 5.32514 7.39209 5.46875 7.39209V7.69238L5.39157 7.6875C5.21271 7.66565 5.04449 7.56844 4.91628 7.41064C4.78808 7.25284 4.70918 7.04582 4.69144 6.82568L4.6875 6.73096ZM48.6793 43.2695C48.678 44.6243 48.2403 45.9226 47.4625 46.8799C46.6848 47.8371 45.6307 48.3753 44.5316 48.377H44.5313C43.7112 48.377 42.9094 48.0776 42.2273 47.5166C41.5452 46.9556 41.0132 46.1581 40.699 45.2246C40.3848 44.2911 40.3026 43.2637 40.4628 42.2725C40.623 41.2812 41.0185 40.3709 41.5988 39.6567C42.179 38.9426 42.9181 38.4567 43.7224 38.2598C44.5267 38.0629 45.3604 38.1635 46.1182 38.5498C46.8759 38.9361 47.5239 39.5907 47.9799 40.4307C48.4359 41.2706 48.6792 42.2584 48.6793 43.269V43.2695ZM6.25 5.76904H39.1251L39.1657 5.4707C39.38 4.08608 39.9423 2.81891 40.7731 1.84863L40.955 1.64551C41.9477 0.586111 43.2173 0.0018953 44.5313 0C45.9811 0.00203592 47.3713 0.71181 48.3965 1.97363C49.4217 3.23545 49.9983 4.94651 50 6.73096V43.269C49.9983 45.0535 49.4217 46.7646 48.3965 48.0264L48.2993 48.1431C47.2843 49.3319 45.9358 49.998 44.5313 50H5.46875L5.3329 49.9976C3.97744 49.9543 2.68294 49.2935 1.70072 48.1431L1.60345 48.0264C0.578261 46.7646 0.00165415 45.0535 0 43.269V6.73096C0.00165416 4.94651 0.578261 3.23545 1.60345 1.97363C2.62868 0.71181 4.01886 0.00203592 5.46875 0C5.67595 0 5.8747 0.101415 6.02122 0.281738C6.16767 0.462028 6.24998 0.706488 6.25 0.961426V5.76904Z" fill="#F5F2EE"/>
<path d="M35.1563 16.3464H34.375V15.3849C34.375 15.1299 34.2927 14.8853 34.1462 14.705C33.9997 14.5246 33.801 14.4233 33.5938 14.4233C33.3865 14.4233 33.1878 14.5246 33.0413 14.705C32.8948 14.8853 32.8125 15.1299 32.8125 15.3849V16.3464H12.5V15.3849C12.5 15.1299 12.4177 14.8853 12.2712 14.705C12.1247 14.5246 11.926 14.4233 11.7188 14.4233C11.5115 14.4233 11.3128 14.5246 11.1663 14.705C11.0198 14.8853 10.9375 15.1299 10.9375 15.3849V16.3464H10.1563C9.94905 16.3464 9.75034 16.4477 9.60382 16.628C9.45731 16.8084 9.375 17.0529 9.375 17.308C9.375 17.563 9.45731 17.8075 9.60382 17.9879C9.75034 18.1682 9.94905 18.2695 10.1563 18.2695H25V25.0003C25 25.2553 25.0823 25.4999 25.2288 25.6802C25.3753 25.8605 25.574 25.9618 25.7813 25.9618C25.9885 25.9618 26.1872 25.8605 26.3337 25.6802C26.4802 25.4999 26.5625 25.2553 26.5625 25.0003V18.2695H35.1563C35.3635 18.2695 35.5622 18.1682 35.7087 17.9879C35.8552 17.8075 35.9375 17.563 35.9375 17.308C35.9375 17.0529 35.8552 16.8084 35.7087 16.628C35.5622 16.4477 35.3635 16.3464 35.1563 16.3464Z" fill="#090402" fill-opacity="0.74"/>
<path d="M25 25.0004V18.2695H10.1563V17.9697H25.2418V25.0004C25.2418 25.175 25.2984 25.343 25.3993 25.4672C25.5003 25.5915 25.6376 25.6615 25.7813 25.6615V25.9618L25.7041 25.9569C25.5508 25.9382 25.4054 25.8641 25.2863 25.744L25.2288 25.6801C25.1006 25.5223 25.0217 25.3152 25.0039 25.0951L25 25.0004ZM26.3207 25.0004V17.9697H35.1563V18.2695H26.5625V25.0004L26.5586 25.0951C26.5408 25.3152 26.4619 25.5223 26.3337 25.6801L26.2762 25.744C26.1372 25.8841 25.9625 25.9618 25.7813 25.9618V25.6615C25.9249 25.6615 26.0622 25.5915 26.1632 25.4672C26.2641 25.343 26.3207 25.175 26.3207 25.0004ZM35.6957 17.3081C35.6957 17.1334 35.6392 16.965 35.5382 16.8408C35.4372 16.7165 35.2998 16.6465 35.1563 16.6465H34.1332V15.3848C34.1332 15.2101 34.0766 15.0422 33.9757 14.918C33.8747 14.7937 33.7374 14.7231 33.5938 14.7231C33.4501 14.7231 33.3128 14.7937 33.2118 14.918C33.1109 15.0422 33.0543 15.2101 33.0543 15.3848V16.6465H12.2582V15.3848C12.2582 15.2101 12.2016 15.0422 12.1007 14.918C11.9997 14.7937 11.8624 14.7231 11.7188 14.7231C11.5751 14.7231 11.4378 14.7937 11.3368 14.918C11.2359 15.0422 11.1793 15.2101 11.1793 15.3848V16.6465H10.1563C10.0127 16.6465 9.87529 16.7165 9.77429 16.8408C9.67334 16.965 9.61678 17.1334 9.61678 17.3081C9.61681 17.4827 9.67337 17.6507 9.77429 17.7749C9.87529 17.8992 10.0126 17.9697 10.1563 17.9697V18.2695L10.0791 18.2646C9.90021 18.2428 9.73199 18.1455 9.60378 17.9878C9.47559 17.8299 9.39667 17.6229 9.37894 17.4028L9.375 17.3081C9.375 17.0531 9.45727 16.8082 9.60378 16.6279C9.75029 16.4476 9.94906 16.3462 10.1563 16.3462H10.9375V15.3848C10.9375 15.1617 11.0004 14.9465 11.1143 14.7754L11.1663 14.7051C11.3128 14.5248 11.5115 14.4233 11.7188 14.4233C11.926 14.4233 12.1247 14.5248 12.2712 14.7051C12.4177 14.8854 12.5 15.1298 12.5 15.3848V16.3462H32.8125V15.3848C32.8125 15.1617 32.8754 14.9465 32.9893 14.7754L33.0413 14.7051C33.1878 14.5248 33.3865 14.4233 33.5938 14.4233C33.801 14.4233 33.9997 14.5248 34.1462 14.7051C34.2927 14.8854 34.375 15.1298 34.375 15.3848V16.3462H35.1563C35.3634 16.3462 35.5622 16.4476 35.7087 16.6279C35.8552 16.8082 35.9375 17.0531 35.9375 17.3081L35.9336 17.4028C35.9158 17.6229 35.8369 17.8299 35.7087 17.9878L35.6512 18.0517C35.5321 18.1718 35.3867 18.2459 35.2334 18.2646L35.1563 18.2695V17.9697C35.2999 17.9697 35.4372 17.8992 35.5382 17.7749C35.6391 17.6507 35.6957 17.4827 35.6957 17.3081Z" fill="#F5F2EE"/>
<path d="M21.0938 25.9621C21.301 25.9621 21.4997 25.8608 21.6462 25.6805C21.7927 25.5002 21.875 25.2556 21.875 25.0006V21.1544C21.875 20.8994 21.7927 20.6548 21.6462 20.4745C21.4997 20.2942 21.301 20.1929 21.0938 20.1929H14.8438C14.6365 20.1929 14.4378 20.2942 14.2913 20.4745C14.1448 20.6548 14.0625 20.8994 14.0625 21.1544C14.0625 21.4094 14.1448 21.654 14.2913 21.8343C14.4378 22.0146 14.6365 22.1159 14.8438 22.1159H20.3125V25.0006C20.3125 25.2556 20.3948 25.5002 20.5413 25.6805C20.6878 25.8608 20.8865 25.9621 21.0938 25.9621Z" fill="#090402" fill-opacity="0.74"/>
<path d="M20.3125 25.0005V22.1157H14.8438V21.8159H20.5543V25.0005C20.5543 25.1752 20.6108 25.3435 20.7118 25.4678C20.8128 25.592 20.9502 25.6621 21.0938 25.6621V25.9619C20.9125 25.9619 20.7378 25.8843 20.5988 25.7441L20.5413 25.6807C20.3948 25.5003 20.3125 25.2555 20.3125 25.0005ZM21.6332 25.0005V21.1543C21.6332 20.9796 21.5766 20.8117 21.4757 20.6875C21.3747 20.5632 21.2374 20.4927 21.0938 20.4927H14.8438C14.7001 20.4927 14.5628 20.5632 14.4618 20.6875C14.3609 20.8117 14.3043 20.9796 14.3043 21.1543C14.3043 21.329 14.3608 21.4973 14.4618 21.6216C14.5628 21.7458 14.7002 21.8159 14.8438 21.8159V22.1157C14.6625 22.1157 14.4878 22.0385 14.3488 21.8984L14.2913 21.8345C14.1448 21.6541 14.0625 21.4093 14.0625 21.1543C14.0625 20.9312 14.1254 20.716 14.2393 20.5449L14.2913 20.4746C14.4378 20.2943 14.6365 20.1929 14.8438 20.1929H21.0938C21.301 20.1929 21.4997 20.2943 21.6462 20.4746C21.7927 20.6549 21.875 20.8994 21.875 21.1543V25.0005C21.875 25.2555 21.7927 25.5003 21.6462 25.6807L21.5887 25.7441C21.4497 25.8843 21.275 25.9619 21.0938 25.9619V25.6621C21.2373 25.6621 21.3747 25.592 21.4757 25.4678C21.5767 25.3435 21.6332 25.1752 21.6332 25.0005Z" fill="#F5F2EE"/>
<path d="M35.1563 36.539H34.375V21.1544C34.375 20.8994 34.2927 20.6548 34.1462 20.4745C33.9997 20.2942 33.801 20.1929 33.5938 20.1929C33.3865 20.1929 33.1878 20.2942 33.0413 20.4745C32.8948 20.6548 32.8125 20.8994 32.8125 21.1544V36.539H21.875V29.8083H29.6875V33.6544C29.6875 33.9094 29.7698 34.154 29.9163 34.3343C30.0628 34.5146 30.2615 34.6159 30.4688 34.6159C30.676 34.6159 30.8747 34.5146 31.0212 34.3343C31.1677 34.154 31.25 33.9094 31.25 33.6544V28.8467C31.25 28.5917 31.1677 28.3471 31.0212 28.1668C30.8747 27.9865 30.676 27.8852 30.4688 27.8852H14.8438C14.6365 27.8852 14.4378 27.9865 14.2913 28.1668C14.1448 28.3471 14.0625 28.5917 14.0625 28.8467C14.0625 29.1017 14.1448 29.3463 14.2913 29.5266C14.4378 29.707 14.6365 29.8083 14.8438 29.8083H20.3125V36.539H12.5V21.1544C12.5 20.8994 12.4177 20.6548 12.2712 20.4745C12.1247 20.2942 11.926 20.1929 11.7188 20.1929C11.5115 20.1929 11.3128 20.2942 11.1663 20.4745C11.0198 20.6548 10.9375 20.8994 10.9375 21.1544V36.539H10.1563C9.94905 36.539 9.75034 36.6403 9.60382 36.8207C9.45731 37.001 9.375 37.2455 9.375 37.5006C9.375 37.7556 9.45731 38.0002 9.60382 38.1805C9.75034 38.3608 9.94905 38.4621 10.1563 38.4621H10.9375V39.4236C10.9375 39.6787 11.0198 39.9232 11.1663 40.1036C11.3128 40.2839 11.5115 40.3852 11.7188 40.3852C11.926 40.3852 12.1247 40.2839 12.2712 40.1036C12.4177 39.9232 12.5 39.6787 12.5 39.4236V38.4621H32.8125V39.4236C32.8125 39.6787 32.8948 39.9232 33.0413 40.1036C33.1878 40.2839 33.3865 40.3852 33.5938 40.3852C33.801 40.3852 33.9997 40.2839 34.1462 40.1036C34.2927 39.9232 34.375 39.6787 34.375 39.4236V38.4621H35.1563C35.3635 38.4621 35.5622 38.3608 35.7087 38.1805C35.8552 38.0002 35.9375 37.7556 35.9375 37.5006C35.9375 37.2455 35.8552 37.001 35.7087 36.8207C35.5622 36.6403 35.3635 36.539 35.1563 36.539Z" fill="#090402" fill-opacity="0.74"/>
<path d="M10.9375 39.4238V38.4618H10.1563V38.162H11.1793V39.4238C11.1793 39.5984 11.2359 39.7664 11.3368 39.8906C11.4378 40.0149 11.5751 40.0849 11.7188 40.0849V40.3852L11.6416 40.3803C11.4627 40.3584 11.2945 40.2612 11.1663 40.1034C11.0381 39.9456 10.9592 39.7386 10.9414 39.5185L10.9375 39.4238ZM32.8125 39.4238V38.4618H12.5V39.4238L12.4961 39.5185C12.4783 39.7386 12.3994 39.9456 12.2712 40.1034L12.2137 40.1674C12.0747 40.3075 11.9 40.3852 11.7188 40.3852V40.0849C11.8624 40.0849 11.9997 40.0149 12.1007 39.8906C12.2016 39.7664 12.2582 39.5984 12.2582 39.4238V38.162H33.0543V39.4238C33.0543 39.5984 33.1109 39.7664 33.2118 39.8906C33.3128 40.0149 33.4501 40.0849 33.5938 40.0849V40.3852L33.5166 40.3803C33.3377 40.3584 33.1695 40.2612 33.0413 40.1034C32.9131 39.9456 32.8342 39.7386 32.8164 39.5185L32.8125 39.4238ZM34.1332 39.4238V38.162H35.1563V38.4618H34.375V39.4238L34.3711 39.5185C34.3533 39.7386 34.2744 39.9456 34.1462 40.1034L34.0887 40.1674C33.9497 40.3075 33.775 40.3852 33.5938 40.3852V40.0849C33.7374 40.0849 33.8747 40.0149 33.9757 39.8906C34.0766 39.7664 34.1332 39.5984 34.1332 39.4238ZM35.6957 37.5004C35.6957 37.3257 35.6391 37.1578 35.5382 37.0336C35.4372 36.9093 35.2999 36.8388 35.1563 36.8388H34.1332V21.1543C34.1332 20.9796 34.0766 20.8117 33.9757 20.6875C33.8747 20.5632 33.7374 20.4927 33.5938 20.4927C33.4501 20.4927 33.3128 20.5632 33.2118 20.6875C33.1109 20.8117 33.0543 20.9796 33.0543 21.1543V36.8388H21.6332V29.5083H29.9293V33.6542C29.9293 33.829 29.9858 33.9973 30.0868 34.1215C30.1878 34.2458 30.3252 34.3159 30.4688 34.3159V34.6157C30.2875 34.6157 30.1128 34.5385 29.9738 34.3984L29.9163 34.3344C29.7698 34.1541 29.6875 33.9093 29.6875 33.6542V29.8081H21.875V36.539H32.8125V21.1543C32.8125 20.9312 32.8754 20.716 32.9893 20.5449L33.0413 20.4746C33.1878 20.2943 33.3865 20.1929 33.5938 20.1929C33.801 20.1929 33.9997 20.2943 34.1462 20.4746C34.2927 20.6549 34.375 20.8994 34.375 21.1543V36.539H35.1563C35.3635 36.539 35.5622 36.6404 35.7087 36.8207C35.8552 37.001 35.9375 37.2455 35.9375 37.5004C35.9375 37.7554 35.8552 38.0003 35.7087 38.1806L35.6512 38.2441C35.5122 38.3843 35.3375 38.4618 35.1563 38.4618V38.162C35.2998 38.162 35.4372 38.0919 35.5382 37.9677C35.6392 37.8435 35.6957 37.6751 35.6957 37.5004ZM20.3125 29.8081H14.8438V29.5083H20.5543V36.8388H12.2582V21.1543C12.2582 20.9796 12.2016 20.8117 12.1007 20.6875C11.9997 20.5632 11.8624 20.4927 11.7188 20.4927C11.5751 20.4927 11.4378 20.5632 11.3368 20.6875C11.2359 20.8117 11.1793 20.9796 11.1793 21.1543V36.8388H10.1563C10.0126 36.8388 9.87529 36.9093 9.77429 37.0336C9.67338 37.1578 9.61679 37.3257 9.61678 37.5004C9.61678 37.6751 9.67334 37.8435 9.77429 37.9677C9.87528 38.0919 10.0127 38.162 10.1563 38.162V38.4618C9.97495 38.4618 9.80029 38.3843 9.66127 38.2441L9.60378 38.1806C9.45727 38.0003 9.375 37.7554 9.375 37.5004C9.37501 37.2773 9.43793 37.0621 9.55181 36.8911L9.60378 36.8207C9.73199 36.663 9.90022 36.5657 10.0791 36.5439L10.1563 36.539H10.9375V21.1543C10.9375 20.9312 11.0004 20.716 11.1143 20.5449L11.1663 20.4746C11.3128 20.2943 11.5115 20.1929 11.7188 20.1929C11.926 20.1929 12.1247 20.2943 12.2712 20.4746C12.4177 20.6549 12.5 20.8994 12.5 21.1543V36.539H20.3125V29.8081ZM31.0082 33.6542V28.8466C31.0082 28.672 30.9516 28.5041 30.8507 28.3799C30.7497 28.2555 30.6124 28.185 30.4688 28.185H14.8438C14.7001 28.185 14.5628 28.2555 14.4618 28.3799C14.3609 28.5041 14.3043 28.672 14.3043 28.8466C14.3043 29.0213 14.3609 29.1892 14.4618 29.3134C14.5628 29.4378 14.7001 29.5083 14.8438 29.5083V29.8081C14.6625 29.8081 14.4878 29.7305 14.3488 29.5903L14.2913 29.5268C14.1448 29.3465 14.0625 29.1017 14.0625 28.8466C14.0625 28.6235 14.1254 28.4084 14.2393 28.2373L14.2913 28.167C14.4195 28.0092 14.5877 27.9115 14.7666 27.8896L14.8438 27.8852H30.4688C30.676 27.8852 30.8747 27.9866 31.0212 28.167C31.1677 28.3473 31.25 28.5917 31.25 28.8466V33.6542C31.25 33.9093 31.1677 34.1541 31.0212 34.3344L30.9637 34.3984C30.8247 34.5385 30.65 34.6157 30.4688 34.6157V34.3159C30.6123 34.3159 30.7497 34.2458 30.8507 34.1215C30.9517 33.9973 31.0082 33.829 31.0082 33.6542Z" fill="#F5F2EE"/>
</svg>
