<svg width="60" height="58" viewBox="0 0 60 58" fill="none" xmlns="http://www.w3.org/2000/svg">
<path d="M33.7959 9.4986L20.8701 47.2681H5.7627L20.8037 9.4986H33.7959Z" fill="#090402" stroke="#090402" stroke-width="0.963855"/>
<path d="M28.9961 23.6741L36.5889 47.2678H51.625L42.1455 23.6741H28.9961Z" fill="#090402" stroke="#090402" stroke-width="0.963855"/>
<path d="M38.2601 8.91736L38.2601 9.11643L17.1445 9.11643L17.1445 8.91736L38.2601 8.91736Z" fill="#090402"/>
<path d="M50.3518 23.0928L50.3518 23.2919L7.75977 23.2919L7.75977 23.0928L50.3518 23.0928Z" fill="#090402"/>
<path d="M57.5714 47.6502L57.5714 47.8493L-1.6871e-08 47.8493L0 47.6502L57.5714 47.6502Z" fill="#090402"/>
<path d="M18.0304 56.7657L17.8619 56.6944L36.8949 1.64299L37.0635 1.71429L18.0304 56.7657Z" fill="#090402"/>
<path d="M1.60233 56.7705L1.4372 56.6898L23.6179 1.09424L23.7829 1.17488L1.60233 56.7705Z" fill="#090402"/>
<path d="M39.8185 57.9014L39.6492 57.9704L20.7521 1.1147L20.9216 1.04562L39.8185 57.9014Z" fill="#090402"/>
<path d="M56.3899 57.7321L56.3076 57.7728L56.2251 57.8133L39.913 17.3342L40.0777 17.2529L56.3899 57.7321Z" fill="#090402"/>
</svg>
