<svg width="61" height="59" viewBox="0 0 61 59" fill="none" xmlns="http://www.w3.org/2000/svg">
<path d="M34.2773 9.4986L21.3516 47.2681H6.24414L21.2852 9.4986H34.2773Z" fill="white" stroke="white" stroke-width="0.963855"/>
<path d="M29.4775 23.6741L37.0703 47.2678H52.1064L42.627 23.6741H29.4775Z" fill="white" stroke="white" stroke-width="0.963855"/>
<path d="M38.7415 8.91736L38.7415 9.11643L17.626 9.11643L17.626 8.91736L38.7415 8.91736Z" fill="white" stroke="white" stroke-width="0.963855"/>
<path d="M50.8333 23.0928L50.8333 23.2919L8.24121 23.2919L8.24121 23.0928L50.8333 23.0928Z" fill="white" stroke="white" stroke-width="0.963855"/>
<path d="M58.0529 47.6502L58.0529 47.8493L0.481445 47.8493L0.481445 47.6502L58.0529 47.6502Z" fill="white" stroke="white" stroke-width="0.963855"/>
<path d="M18.5119 56.7657L18.3433 56.6944L37.3763 1.64299L37.5449 1.71429L18.5119 56.7657Z" fill="white" stroke="white" stroke-width="0.963855"/>
<path d="M2.08378 56.7705L1.91864 56.6898L24.0993 1.09424L24.2643 1.17488L2.08378 56.7705Z" fill="white" stroke="white" stroke-width="0.963855"/>
<path d="M40.2999 57.9014L40.1306 57.9704L21.2335 1.1147L21.403 1.04562L40.2999 57.9014Z" fill="white" stroke="white" stroke-width="0.963855"/>
<path d="M56.8714 57.7321L56.789 57.7728L56.7066 57.8133L40.3944 17.3342L40.5591 17.2529L56.8714 57.7321Z" fill="white" stroke="white" stroke-width="0.963855"/>
</svg>
