<svg width="160" height="58" viewBox="0 0 160 58" fill="none" xmlns="http://www.w3.org/2000/svg">
<path d="M33.7964 9.49902L20.8706 47.2686H5.76318L20.8042 9.49902H33.7964Z" fill="white" stroke="white" stroke-width="0.963855"/>
<path d="M28.9958 23.6738L36.5886 47.2676H51.6248L42.1453 23.6738H28.9958Z" fill="white" stroke="white" stroke-width="0.963855"/>
<path d="M38.2606 8.91797L38.2606 9.11704L17.145 9.11704L17.145 8.91797L38.2606 8.91797Z" fill="white"/>
<path d="M50.3525 23.0928L50.3525 23.2919L7.7605 23.2918L7.7605 23.0928L50.3525 23.0928Z" fill="white"/>
<path d="M57.5714 47.6504L57.5714 47.8495L-1.6871e-08 47.8495L0 47.6504L57.5714 47.6504Z" fill="white"/>
<path d="M18.0307 56.7663L17.8621 56.695L36.8951 1.64354L37.0637 1.71484L18.0307 56.7663Z" fill="white"/>
<path d="M1.60233 56.7701L1.4372 56.6894L23.6179 1.09387L23.7829 1.17451L1.60233 56.7701Z" fill="white"/>
<path d="M39.8183 57.9018L39.6489 57.9708L20.7518 1.11506L20.9213 1.04598L39.8183 57.9018Z" fill="white"/>
<path d="M56.3899 57.7325L56.3076 57.7732L56.2251 57.8137L39.913 17.3346L40.0777 17.2532L56.3899 57.7325Z" fill="white"/>
<path d="M152.033 48.1211C151.307 48.1211 150.674 47.9961 150.135 47.7461C149.596 47.4961 149.155 47.1679 148.813 46.7617C148.471 46.345 148.211 45.8815 148.035 45.3711C147.869 44.8502 147.786 44.319 147.786 43.7773V43.4805C147.786 42.9284 147.869 42.3971 148.035 41.8867C148.211 41.3659 148.471 40.9023 148.813 40.4961C149.155 40.0794 149.585 39.7513 150.104 39.5117C150.633 39.2617 151.245 39.1367 151.94 39.1367C152.842 39.1367 153.594 39.3346 154.195 39.7305C154.797 40.1263 155.248 40.6419 155.549 41.2773C155.85 41.9023 156 42.5794 156 43.3086V44.043H148.564V42.8086H154.771L154.273 43.4336C154.273 42.8711 154.185 42.3867 154.009 41.9805C153.832 41.5638 153.573 41.2461 153.231 41.0273C152.889 40.7982 152.458 40.6836 151.94 40.6836C151.4 40.6836 150.949 40.8086 150.586 41.0586C150.223 41.3086 149.954 41.6523 149.777 42.0898C149.601 42.5273 149.513 43.043 149.513 43.6367C149.513 44.1992 149.601 44.7044 149.777 45.1523C149.954 45.5898 150.228 45.9388 150.602 46.1992C150.975 46.4492 151.452 46.5742 152.033 46.5742C152.614 46.5742 153.091 46.4492 153.464 46.1992C153.838 45.9388 154.066 45.6367 154.149 45.2929H155.844C155.73 45.8659 155.497 46.3659 155.144 46.7929C154.802 47.22 154.367 47.5481 153.838 47.7773C153.309 48.0065 152.707 48.1211 152.033 48.1211Z" fill="white"/>
<path d="M142.634 47.8398V39.418H144.081V42.9336H144.019C144.019 41.7253 144.283 40.8242 144.812 40.2305C145.341 39.6263 146.124 39.3242 147.161 39.3242H147.457V40.9336H146.897C146.109 40.9336 145.502 41.1471 145.077 41.5742C144.662 41.9909 144.454 42.5898 144.454 43.3711V47.8398H142.634Z" fill="white"/>
<path d="M136.275 48.0898C135.29 48.0898 134.533 47.7721 134.004 47.1367C133.475 46.4909 133.21 45.5429 133.21 44.293V39.418H135.031V44.543C135.031 45.1263 135.191 45.5898 135.513 45.9336C135.834 46.2669 136.27 46.4336 136.82 46.4336C137.38 46.4336 137.836 46.2565 138.189 45.9023C138.551 45.5377 138.733 45.0429 138.733 44.418V39.418H140.553V47.8398H139.106V44.2461H139.293C139.293 45.0898 139.179 45.7982 138.951 46.3711C138.733 46.9336 138.406 47.3606 137.971 47.6523C137.546 47.944 137.006 48.0898 136.353 48.0898H136.275Z" fill="white"/>
<path d="M130.788 47.9336C130.093 47.9336 129.507 47.8398 129.03 47.6523C128.553 47.4648 128.19 47.1419 127.941 46.6836C127.703 46.2252 127.584 45.6054 127.584 44.8242V36.9648H129.31V44.9804C129.31 45.4179 129.424 45.7565 129.653 45.9961C129.891 46.2252 130.223 46.3398 130.648 46.3398H132.048V47.9336H130.788ZM126.199 40.7773V39.418H132.048V40.7773H126.199Z" fill="white"/>
<path d="M122.148 48.1211C121.433 48.1211 120.805 48.0013 120.266 47.7617C119.737 47.5117 119.296 47.1784 118.943 46.7617C118.601 46.3346 118.342 45.8659 118.166 45.3554C118 44.8346 117.917 44.3086 117.917 43.7773V43.4961C117.917 42.944 118.005 42.4127 118.181 41.9023C118.358 41.3815 118.622 40.9128 118.975 40.4961C119.327 40.0794 119.763 39.7513 120.281 39.5117C120.81 39.2617 121.427 39.1367 122.133 39.1367C122.848 39.1367 123.486 39.2721 124.046 39.543C124.616 39.8138 125.073 40.1992 125.415 40.6992C125.757 41.1888 125.949 41.7617 125.991 42.418H124.233C124.17 41.9492 123.958 41.5534 123.595 41.2305C123.242 40.9075 122.755 40.7461 122.133 40.7461C121.593 40.7461 121.147 40.8711 120.795 41.1211C120.442 41.3711 120.178 41.7148 120.001 42.1523C119.825 42.5794 119.737 43.0742 119.737 43.6367C119.737 44.1784 119.82 44.6679 119.986 45.1054C120.162 45.5429 120.427 45.8867 120.779 46.1367C121.142 46.3867 121.598 46.5117 122.148 46.5117C122.573 46.5117 122.936 46.4388 123.237 46.2929C123.548 46.1367 123.797 45.9336 123.984 45.6836C124.17 45.4232 124.279 45.1263 124.31 44.7929H126.084C126.053 45.47 125.861 46.0586 125.508 46.5586C125.156 47.0481 124.689 47.4336 124.108 47.7148C123.527 47.9856 122.874 48.1211 122.148 48.1211Z" fill="white"/>
<path d="M113.2 48.1211C112.474 48.1211 111.841 47.9961 111.302 47.7461C110.763 47.4961 110.322 47.1679 109.98 46.7617C109.637 46.345 109.378 45.8815 109.202 45.3711C109.036 44.8502 108.953 44.319 108.953 43.7773V43.4805C108.953 42.9284 109.036 42.3971 109.202 41.8867C109.378 41.3659 109.637 40.9023 109.98 40.4961C110.322 40.0794 110.752 39.7513 111.271 39.5117C111.8 39.2617 112.412 39.1367 113.106 39.1367C114.009 39.1367 114.761 39.3346 115.362 39.7305C115.964 40.1263 116.415 40.6419 116.716 41.2773C117.016 41.9023 117.167 42.5794 117.167 43.3086V44.043H109.731V42.8086H115.938L115.44 43.4336C115.44 42.8711 115.352 42.3867 115.175 41.9805C114.999 41.5638 114.74 41.2461 114.398 41.0273C114.055 40.7982 113.625 40.6836 113.106 40.6836C112.567 40.6836 112.116 40.8086 111.753 41.0586C111.39 41.3086 111.12 41.6523 110.944 42.0898C110.768 42.5273 110.68 43.043 110.68 43.6367C110.68 44.1992 110.768 44.7044 110.944 45.1523C111.12 45.5898 111.395 45.9388 111.769 46.1992C112.142 46.4492 112.619 46.5742 113.2 46.5742C113.781 46.5742 114.258 46.4492 114.631 46.1992C115.004 45.9388 115.232 45.6367 115.315 45.2929H117.011C116.897 45.8659 116.664 46.3659 116.311 46.7929C115.969 47.22 115.533 47.5481 115.004 47.7773C114.475 48.0065 113.874 48.1211 113.2 48.1211Z" fill="white"/>
<path d="M106.981 47.9336C106.286 47.9336 105.7 47.8398 105.223 47.6523C104.746 47.4648 104.383 47.1419 104.134 46.6836C103.895 46.2252 103.776 45.6054 103.776 44.8242V36.9648H105.503V44.9804C105.503 45.4179 105.617 45.7565 105.845 45.9961C106.083 46.2252 106.415 46.3398 106.84 46.3398H108.241V47.9336H106.981ZM102.391 40.7773V39.418H108.241V40.7773H102.391Z" fill="white"/>
<path d="M99.632 47.8398V39.418H101.452V47.8398H99.632ZM98.4031 40.8242V39.418H101.452V40.8242H98.4031ZM100.223 38.2461C99.8498 38.2461 99.5698 38.1471 99.3831 37.9492C99.2068 37.7513 99.1187 37.4961 99.1187 37.1836C99.1187 36.8815 99.2068 36.6315 99.3831 36.4336C99.5698 36.2253 99.8498 36.1211 100.223 36.1211C100.607 36.1211 100.887 36.2253 101.063 36.4336C101.25 36.6315 101.343 36.8815 101.343 37.1836C101.343 37.4961 101.25 37.7513 101.063 37.9492C100.887 38.1471 100.607 38.2461 100.223 38.2461Z" fill="white"/>
<path d="M89.8384 47.8398V36.4336H91.6585V43.1679H91.2851C91.2851 42.3346 91.3888 41.6211 91.5963 41.0273C91.814 40.4232 92.1407 39.9648 92.5763 39.6523C93.0223 39.3294 93.5823 39.168 94.2564 39.168H94.3342C95.3194 39.168 96.0609 39.5013 96.5588 40.168C97.0669 40.8346 97.321 41.793 97.321 43.0429V47.8398H95.5009V42.7773C95.5009 42.1732 95.3246 41.6992 94.972 41.3555C94.6298 41.0013 94.1838 40.8242 93.6341 40.8242C93.043 40.8242 92.5659 41.0221 92.203 41.418C91.84 41.8138 91.6585 42.3346 91.6585 42.9804V47.8398H89.8384Z" fill="white"/>
<path d="M84.6364 48.1211C83.9208 48.1211 83.2933 48.0013 82.7541 47.7617C82.2251 47.5117 81.7844 47.1784 81.4318 46.7617C81.0895 46.3346 80.8302 45.8659 80.6539 45.3554C80.488 44.8346 80.405 44.3086 80.405 43.7773V43.4961C80.405 42.944 80.4932 42.4127 80.6695 41.9023C80.8458 41.3815 81.1103 40.9128 81.4629 40.4961C81.8155 40.0794 82.2511 39.7513 82.7696 39.5117C83.2985 39.2617 83.9156 39.1367 84.6208 39.1367C85.3364 39.1367 85.9742 39.2721 86.5343 39.543C87.1047 39.8138 87.561 40.1992 87.9032 40.6992C88.2455 41.1888 88.4373 41.7617 88.4788 42.418H86.7209C86.6587 41.9492 86.4461 41.5534 86.0831 41.2305C85.7305 40.9075 85.2431 40.7461 84.6208 40.7461C84.0815 40.7461 83.6356 40.8711 83.283 41.1211C82.9304 41.3711 82.6659 41.7148 82.4896 42.1523C82.3133 42.5794 82.2251 43.0742 82.2251 43.6367C82.2251 44.1784 82.3081 44.6679 82.474 45.1054C82.6503 45.5429 82.9148 45.8867 83.2674 46.1367C83.6304 46.3867 84.0867 46.5117 84.6364 46.5117C85.0616 46.5117 85.4246 46.4388 85.7253 46.2929C86.0365 46.1367 86.2854 45.9336 86.472 45.6836C86.6587 45.4232 86.7676 45.1263 86.7987 44.7929H88.5722C88.541 45.47 88.3492 46.0586 87.9966 46.5586C87.644 47.0481 87.1773 47.4336 86.5965 47.7148C86.0157 47.9856 85.3623 48.1211 84.6364 48.1211Z" fill="white"/>
<path d="M75.2529 47.8398V39.418H76.6997V42.9336H76.6375C76.6375 41.7253 76.9019 40.8242 77.4308 40.2305C77.9597 39.6263 78.7428 39.3242 79.7799 39.3242H80.0754V40.9336H79.5154C78.7272 40.9336 78.1205 41.1471 77.6953 41.5742C77.2805 41.9909 77.073 42.5898 77.073 43.3711V47.8398H75.2529Z" fill="white"/>
<path d="M63 47.8398L66.9824 36.4336H70.0782L74.1851 47.8398H72.2561L68.6625 37.6836L69.4248 38.043H67.5425L68.3514 37.6836L64.8668 47.8398H63ZM65.5824 44.6211L66.1735 42.9961H70.9338L71.5405 44.6211H65.5824Z" fill="white"/>
<path d="M124.222 30.7187L127.248 26.2656L127.182 26.5938L124.353 22.2969H126.459L128.416 25.3594H128.662L130.505 22.2969H132.478L129.797 26.5312L129.847 26.2344L133.021 30.7187H130.916L128.613 27.4219H128.383L126.195 30.7187H124.222Z" fill="white"/>
<path d="M119.678 31C118.91 31 118.241 30.875 117.671 30.625C117.101 30.375 116.635 30.0469 116.273 29.6406C115.911 29.224 115.637 28.7604 115.451 28.25C115.275 27.7292 115.188 27.1979 115.188 26.6563V26.3594C115.188 25.8073 115.275 25.276 115.451 24.7656C115.637 24.2448 115.911 23.7813 116.273 23.375C116.635 22.9583 117.09 22.6302 117.638 22.3906C118.198 22.1406 118.845 22.0156 119.579 22.0156C120.533 22.0156 121.328 22.2135 121.964 22.6094C122.6 23.0052 123.077 23.5208 123.395 24.1563C123.713 24.7813 123.872 25.4583 123.872 26.1875V26.9219H116.01V25.6875H122.573L122.046 26.3125C122.046 25.75 121.953 25.2656 121.767 24.8594C121.58 24.4427 121.306 24.125 120.944 23.9063C120.582 23.6771 120.127 23.5625 119.579 23.5625C119.009 23.5625 118.532 23.6875 118.148 23.9375C117.765 24.1875 117.479 24.5313 117.293 24.9688C117.107 25.4063 117.013 25.9219 117.013 26.5156C117.013 27.0781 117.107 27.5833 117.293 28.0313C117.479 28.4688 117.77 28.8177 118.165 29.0781C118.559 29.3281 119.064 29.4531 119.678 29.4531C120.292 29.4531 120.796 29.3281 121.191 29.0781C121.586 28.8177 121.827 28.5156 121.915 28.1719H123.708C123.587 28.7448 123.34 29.2448 122.967 29.6719C122.606 30.099 122.145 30.4271 121.586 30.6563C121.027 30.8854 120.391 31 119.678 31Z" fill="white"/>
<path d="M105.886 30.7188V22.2969H107.415V25.9062H107.234C107.234 25.0729 107.35 24.3698 107.58 23.7969C107.821 23.224 108.183 22.7917 108.665 22.5C109.148 22.1979 109.745 22.0469 110.458 22.0469H110.54C111.637 22.0469 112.454 22.375 112.991 23.0312C113.528 23.6875 113.797 24.6458 113.797 25.9062V30.7188H111.873V25.6563C111.873 25.0729 111.697 24.6042 111.346 24.25C110.995 23.8854 110.513 23.7031 109.899 23.7031C109.274 23.7031 108.77 23.8906 108.386 24.2656C108.002 24.6302 107.81 25.1198 107.81 25.7344V30.7188H105.886Z" fill="white"/>
<path d="M101.751 30.7188V22.2969H103.676V30.7188H101.751ZM100.452 23.7031V22.2969H103.676V23.7031H100.452ZM102.376 21.125C101.982 21.125 101.685 21.026 101.488 20.8281C101.302 20.6302 101.208 20.375 101.208 20.0625C101.208 19.7604 101.302 19.5104 101.488 19.3125C101.685 19.1042 101.982 19 102.376 19C102.782 19 103.078 19.1042 103.264 19.3125C103.462 19.5104 103.56 19.7604 103.56 20.0625C103.56 20.375 103.462 20.6302 103.264 20.8281C103.078 21.026 102.782 21.125 102.376 21.125Z" fill="white"/>
<path d="M91.3967 30.7188V19.3125H93.3211V26.0469H92.9263C92.9263 25.2135 93.036 24.5 93.2553 23.9063C93.4855 23.3021 93.8309 22.8438 94.2915 22.5312C94.763 22.2083 95.3551 22.0469 96.0678 22.0469H96.15C97.1917 22.0469 97.9757 22.3802 98.502 23.0469C99.0393 23.7135 99.3079 24.6719 99.3079 25.9219V30.7188H97.3836V25.6563C97.3836 25.0521 97.1972 24.5781 96.8244 24.2344C96.4625 23.8802 95.991 23.7031 95.4099 23.7031C94.7849 23.7031 94.2805 23.901 93.8967 24.2969C93.513 24.6927 93.3211 25.2135 93.3211 25.8594V30.7188H91.3967Z" fill="white"/>
<path d="M85.8968 31C85.1402 31 84.4768 30.8802 83.9067 30.6406C83.3474 30.3906 82.8814 30.0573 82.5086 29.6406C82.1468 29.2135 81.8727 28.7448 81.6863 28.2344C81.5108 27.7135 81.4231 27.1875 81.4231 26.6563V26.375C81.4231 25.8229 81.5163 25.2917 81.7027 24.7813C81.8891 24.2604 82.1687 23.7917 82.5415 23.375C82.9143 22.9583 83.3749 22.6302 83.9231 22.3906C84.4823 22.1406 85.1347 22.0156 85.8803 22.0156C86.6369 22.0156 87.3113 22.151 87.9034 22.4219C88.5064 22.6927 88.9889 23.0781 89.3507 23.5781C89.7126 24.0677 89.9154 24.6406 89.9593 25.2969H88.1007C88.035 24.8281 87.8102 24.4323 87.4264 24.1094C87.0536 23.7865 86.5382 23.625 85.8803 23.625C85.3102 23.625 84.8387 23.75 84.4659 24C84.0931 24.25 83.8135 24.5938 83.627 25.0313C83.4406 25.4583 83.3474 25.9531 83.3474 26.5156C83.3474 27.0573 83.4352 27.5469 83.6106 27.9844C83.797 28.4219 84.0766 28.7656 84.4494 29.0156C84.8332 29.2656 85.3156 29.3906 85.8968 29.3906C86.3464 29.3906 86.7301 29.3177 87.0481 29.1719C87.3771 29.0156 87.6402 28.8125 87.8376 28.5625C88.035 28.3021 88.1501 28.0052 88.183 27.6719H90.058C90.0251 28.349 89.8222 28.9375 89.4494 29.4375C89.0766 29.9271 88.5832 30.3125 87.9692 30.5938C87.3551 30.8646 86.6643 31 85.8968 31Z" fill="white"/>
<path d="M75.9761 30.7188V22.2969H77.5057V25.8125H77.4399C77.4399 24.6042 77.7195 23.7031 78.2787 23.1094C78.8379 22.5052 79.6658 22.2031 80.7623 22.2031H81.0748V23.8125H80.4827C79.6493 23.8125 79.0079 24.026 78.5583 24.4531C78.1197 24.8698 77.9004 25.4688 77.9004 26.25V30.7188H75.9761Z" fill="white"/>
<path d="M63.021 30.7188L67.2315 19.3125H70.5046L74.8467 30.7188H72.8072L69.0079 20.5625L69.8138 20.9219H67.8236L68.6789 20.5625L64.9947 30.7188H63.021ZM65.7513 27.5L66.3763 25.875H71.4092L72.0506 27.5H65.7513Z" fill="white"/>
<path d="M158.654 40.8488C158.789 40.8488 158.877 40.7674 158.877 40.6373C158.877 40.5013 158.789 40.4266 158.654 40.4266H158.404V40.8488H158.654ZM158.086 40.1404H158.667C159.012 40.1404 159.195 40.3451 159.195 40.6306C159.195 40.8219 159.121 40.9781 158.911 41.067L159.303 41.5916H158.911L158.573 41.1283H158.404V41.5916H158.086V40.1404ZM159.682 40.9033C159.682 40.263 159.222 39.7929 158.6 39.7929C157.971 39.7929 157.51 40.263 157.51 40.9033C157.51 41.5437 157.971 42.0138 158.594 42.0138C159.222 42.0138 159.682 41.5437 159.682 40.9033ZM157.2 40.9033C157.2 40.1135 157.816 39.5 158.6 39.5C159.385 39.5 160 40.1135 160 40.9033C160 41.694 159.378 42.3 158.594 42.3C157.816 42.3 157.2 41.694 157.2 40.9033Z" fill="white"/>
</svg>
