<svg width="50" height="44" viewBox="0 0 50 44" fill="none" xmlns="http://www.w3.org/2000/svg">
<path d="M20.4483 1.06112L19.2049 1.77091V4.96558L46.6701 9.82993V5.8689H47.8799V10.0437L48.8758 10.2206H49.6V11.4401H48.7724L48.7204 11.4311L47.8799 11.2823V19.3216H49.6V20.5412H47.8799V22.4466H49.6V23.6662H47.8799V38.8529H49.6V40.0724H47.8799V43.3689H46.6701V40.0724H19.2049V40.2439H17.9951V40.0724H2.94642L2.94819 43.3683L1.73843 43.3689L1.73666 40.0724H0V38.8529H1.73607L1.72898 23.6662H0V22.4466H1.72839L1.72721 20.5412H0V19.3216H1.72662L1.72248 11.7569L1.0733 12.1284L0.934489 12.2076H0V10.9881H0.615511L1.72189 10.3557L1.72012 5.8689L2.92988 5.86831L2.93165 9.6644L19.8517 0L20.4483 1.06112ZM41.6799 38.8529H46.6701V29.9162H41.6799V38.8529ZM35.4799 38.8529H40.4701V29.9162H35.4799V38.8529ZM29.2799 38.8529H34.2701V29.9162H29.2799V38.8529ZM19.2049 38.8529H28.0701V29.9162H24.025V28.6966H46.6701V23.6662H19.2049V38.8529ZM2.93874 25.1334L16.5479 38.8529H17.9951V37.6167L4.15617 23.6662H2.93874V25.1334ZM2.9411 29.5547L12.1637 38.8529H14.8372L2.93992 26.859L2.9411 29.5547ZM2.94346 33.9766L7.78072 38.8529H10.453L2.94228 31.2804L2.94346 33.9766ZM2.94583 38.8529H6.07005L2.94405 35.7023L2.94583 38.8529ZM17.9951 35.8916V33.1972L8.54036 23.6662H5.86684L17.9951 35.8916ZM17.9951 31.4721V28.7776L12.9245 23.6662H10.2516L17.9951 31.4721ZM17.9951 27.0532V23.6662H14.6352L17.9951 27.0532ZM19.2049 22.4466H46.6701V20.5412H19.2049V22.4466ZM2.93815 22.4466H17.9951V20.5412H2.93697L2.93815 22.4466ZM19.2049 19.3216H46.6701V11.0679L19.2049 6.20355V19.3216ZM9.12988 7.52608V19.3216H17.9951V2.46225L9.12988 7.52608ZM2.93638 19.3216H7.92012V15.0724H2.9346L2.93638 19.3216ZM2.93224 11.0661L2.93401 13.8529H7.92012V8.21742L2.93224 11.0661Z" fill="#090402" fill-opacity="0.74"/>
</svg>
