<svg width="167" height="58" viewBox="0 0 167 58" fill="none" xmlns="http://www.w3.org/2000/svg">
<path d="M39.7969 9.49861L26.8711 47.2681H11.7637L26.8047 9.49861H39.7969Z" fill="#090402" stroke="#090402" stroke-width="0.963855"/>
<path d="M34.9961 23.6741L42.5889 47.2678H57.625L48.1455 23.6741H34.9961Z" fill="#090402" stroke="#090402" stroke-width="0.963855"/>
<path d="M44.2611 8.91737L44.2611 9.11644L23.1455 9.11644L23.1455 8.91737L44.2611 8.91737Z" fill="#090402"/>
<path d="M56.3528 23.0928L56.3528 23.2919L13.7607 23.2919L13.7607 23.0928L56.3528 23.0928Z" fill="#090402"/>
<path d="M63.5714 47.6502L63.5714 47.8493L6 47.8493L6 47.6502L63.5714 47.6502Z" fill="#090402"/>
<path d="M24.0304 56.7657L23.8619 56.6944L42.8949 1.643L43.0635 1.7143L24.0304 56.7657Z" fill="#090402"/>
<path d="M7.60233 56.7705L7.4372 56.6898L29.6179 1.09425L29.7829 1.17488L7.60233 56.7705Z" fill="#090402"/>
<path d="M45.8185 57.9014L45.6492 57.9704L26.7521 1.11471L26.9216 1.04563L45.8185 57.9014Z" fill="#090402"/>
<path d="M62.3899 57.7321L62.3076 57.7728L62.2251 57.8133L45.913 17.3342L46.0777 17.2529L62.3899 57.7321Z" fill="#090402"/>
<path d="M158.033 48.1211C157.307 48.1211 156.675 47.9961 156.135 47.7461C155.596 47.4961 155.155 47.168 154.813 46.7617C154.471 46.345 154.211 45.8815 154.035 45.3711C153.869 44.8503 153.786 44.319 153.786 43.7774V43.4805C153.786 42.9284 153.869 42.3971 154.035 41.8867C154.211 41.3659 154.471 40.9024 154.813 40.4961C155.155 40.0794 155.586 39.7513 156.104 39.5117C156.633 39.2617 157.245 39.1367 157.94 39.1367C158.842 39.1367 159.594 39.3347 160.195 39.7305C160.797 40.1263 161.248 40.6419 161.549 41.2774C161.85 41.9024 162 42.5794 162 43.3086V44.043H154.564V42.8086H160.771L160.273 43.4336C160.273 42.8711 160.185 42.3867 160.009 41.9805C159.832 41.5638 159.573 41.2461 159.231 41.0274C158.889 40.7982 158.458 40.6836 157.94 40.6836C157.4 40.6836 156.949 40.8086 156.586 41.0586C156.223 41.3086 155.954 41.6524 155.777 42.0899C155.601 42.5274 155.513 43.043 155.513 43.6367C155.513 44.1992 155.601 44.7044 155.777 45.1523C155.954 45.5898 156.229 45.9388 156.602 46.1992C156.975 46.4492 157.452 46.5742 158.033 46.5742C158.614 46.5742 159.091 46.4492 159.464 46.1992C159.838 45.9388 160.066 45.6367 160.149 45.293H161.844C161.73 45.8659 161.497 46.3659 161.144 46.793C160.802 47.22 160.367 47.5482 159.838 47.7773C159.309 48.0065 158.707 48.1211 158.033 48.1211Z" fill="#090402"/>
<path d="M148.634 47.8398V39.4179H150.081V42.9335H150.019C150.019 41.7252 150.283 40.8242 150.812 40.2304C151.341 39.6263 152.124 39.3242 153.161 39.3242H153.457V40.9335H152.897C152.108 40.9335 151.502 41.1471 151.077 41.5742C150.662 41.9908 150.454 42.5898 150.454 43.371V47.8398H148.634Z" fill="#090402"/>
<path d="M142.275 48.0898C141.29 48.0898 140.533 47.7721 140.004 47.1367C139.475 46.4909 139.21 45.5429 139.21 44.2929V39.418H141.03V44.5429C141.03 45.1263 141.191 45.5898 141.513 45.9336C141.834 46.2669 142.27 46.4336 142.819 46.4336C143.379 46.4336 143.836 46.2565 144.188 45.9023C144.551 45.5377 144.733 45.0429 144.733 44.4179V39.418H146.553V47.8398H145.106V44.2461H145.293C145.293 45.0898 145.179 45.7981 144.951 46.3711C144.733 46.9336 144.406 47.3606 143.971 47.6523C143.545 47.944 143.006 48.0898 142.353 48.0898H142.275Z" fill="#090402"/>
<path d="M136.788 47.9336C136.093 47.9336 135.507 47.8398 135.03 47.6523C134.553 47.4648 134.19 47.1419 133.941 46.6836C133.703 46.2253 133.583 45.6055 133.583 44.8242V36.9649H135.31V44.9805C135.31 45.418 135.424 45.7565 135.652 45.9961C135.891 46.2253 136.223 46.3398 136.648 46.3398H138.048V47.9336H136.788ZM132.199 40.7774V39.418H138.048V40.7774H132.199Z" fill="#090402"/>
<path d="M128.148 48.1211C127.432 48.1211 126.805 48.0013 126.266 47.7617C125.737 47.5117 125.296 47.1784 124.943 46.7617C124.601 46.3346 124.342 45.8659 124.166 45.3555C124 44.8346 123.917 44.3086 123.917 43.7774V43.4961C123.917 42.944 124.005 42.4128 124.181 41.9024C124.357 41.3815 124.622 40.9128 124.974 40.4961C125.327 40.0794 125.763 39.7513 126.281 39.5117C126.81 39.2617 127.427 39.1367 128.132 39.1367C128.848 39.1367 129.486 39.2722 130.046 39.543C130.616 39.8138 131.073 40.1992 131.415 40.6992C131.757 41.1888 131.949 41.7617 131.99 42.418H130.233C130.17 41.9492 129.958 41.5534 129.595 41.2305C129.242 40.9076 128.755 40.7461 128.132 40.7461C127.593 40.7461 127.147 40.8711 126.795 41.1211C126.442 41.3711 126.178 41.7149 126.001 42.1524C125.825 42.5794 125.737 43.0742 125.737 43.6367C125.737 44.1784 125.82 44.668 125.986 45.1055C126.162 45.543 126.426 45.8867 126.779 46.1367C127.142 46.3867 127.598 46.5117 128.148 46.5117C128.573 46.5117 128.936 46.4388 129.237 46.293C129.548 46.1367 129.797 45.9336 129.984 45.6836C130.17 45.4232 130.279 45.1263 130.31 44.793H132.084C132.053 45.4701 131.861 46.0586 131.508 46.5586C131.156 47.0482 130.689 47.4336 130.108 47.7148C129.527 47.9857 128.874 48.1211 128.148 48.1211Z" fill="#090402"/>
<path d="M119.2 48.1211C118.474 48.1211 117.841 47.9961 117.302 47.7461C116.763 47.4961 116.322 47.168 115.98 46.7617C115.637 46.345 115.378 45.8815 115.202 45.3711C115.036 44.8503 114.953 44.319 114.953 43.7774V43.4805C114.953 42.9284 115.036 42.3971 115.202 41.8867C115.378 41.3659 115.637 40.9024 115.98 40.4961C116.322 40.0794 116.752 39.7513 117.271 39.5117C117.8 39.2617 118.412 39.1367 119.106 39.1367C120.009 39.1367 120.761 39.3347 121.362 39.7305C121.964 40.1263 122.415 40.6419 122.716 41.2774C123.016 41.9024 123.167 42.5794 123.167 43.3086V44.043H115.731V42.8086H121.938L121.44 43.4336C121.44 42.8711 121.352 42.3867 121.175 41.9805C120.999 41.5638 120.74 41.2461 120.398 41.0274C120.055 40.7982 119.625 40.6836 119.106 40.6836C118.567 40.6836 118.116 40.8086 117.753 41.0586C117.39 41.3086 117.12 41.6524 116.944 42.0899C116.768 42.5274 116.68 43.043 116.68 43.6367C116.68 44.1992 116.768 44.7044 116.944 45.1523C117.12 45.5898 117.395 45.9388 117.769 46.1992C118.142 46.4492 118.619 46.5742 119.2 46.5742C119.781 46.5742 120.258 46.4492 120.631 46.1992C121.004 45.9388 121.232 45.6367 121.315 45.293H123.011C122.897 45.8659 122.664 46.3659 122.311 46.793C121.969 47.22 121.533 47.5482 121.004 47.7773C120.475 48.0065 119.874 48.1211 119.2 48.1211Z" fill="#090402"/>
<path d="M112.981 47.9336C112.286 47.9336 111.7 47.8398 111.223 47.6523C110.746 47.4648 110.383 47.1419 110.134 46.6836C109.895 46.2253 109.776 45.6055 109.776 44.8242V36.9649H111.503V44.9805C111.503 45.418 111.617 45.7565 111.845 45.9961C112.084 46.2253 112.415 46.3398 112.841 46.3398H114.241V47.9336H112.981ZM108.391 40.7774V39.418H114.241V40.7774H108.391Z" fill="#090402"/>
<path d="M105.632 47.8398V39.4179H107.452V47.8398H105.632ZM104.403 40.8242V39.4179H107.452V40.8242H104.403ZM106.223 38.2461C105.85 38.2461 105.57 38.1471 105.383 37.9492C105.207 37.7513 105.119 37.4961 105.119 37.1836C105.119 36.8815 105.207 36.6315 105.383 36.4336C105.57 36.2253 105.85 36.1211 106.223 36.1211C106.607 36.1211 106.887 36.2253 107.063 36.4336C107.25 36.6315 107.343 36.8815 107.343 37.1836C107.343 37.4961 107.25 37.7513 107.063 37.9492C106.887 38.1471 106.607 38.2461 106.223 38.2461Z" fill="#090402"/>
<path d="M95.8384 47.8398V36.4336H97.6585V43.168H97.2851C97.2851 42.3347 97.3888 41.6211 97.5963 41.0274C97.814 40.4232 98.1407 39.9649 98.5763 39.6524C99.0223 39.3295 99.5823 39.168 100.256 39.168H100.334C101.319 39.168 102.061 39.5013 102.559 40.168C103.067 40.8347 103.321 41.793 103.321 43.043V47.8398H101.501V42.7774C101.501 42.1732 101.325 41.6992 100.972 41.3555C100.63 41.0013 100.184 40.8242 99.6341 40.8242C99.043 40.8242 98.5659 41.0222 98.203 41.418C97.84 41.8138 97.6585 42.3346 97.6585 42.9805V47.8398H95.8384Z" fill="#090402"/>
<path d="M90.6364 48.1211C89.9208 48.1211 89.2933 48.0013 88.754 47.7617C88.2251 47.5117 87.7843 47.1784 87.4317 46.7617C87.0895 46.3346 86.8302 45.8659 86.6539 45.3555C86.488 44.8346 86.405 44.3086 86.405 43.7774V43.4961C86.405 42.944 86.4932 42.4128 86.6695 41.9024C86.8458 41.3815 87.1102 40.9128 87.4628 40.4961C87.8154 40.0794 88.251 39.7513 88.7696 39.5117C89.2985 39.2617 89.9156 39.1367 90.6208 39.1367C91.3364 39.1367 91.9742 39.2722 92.5342 39.543C93.1046 39.8138 93.561 40.1992 93.9032 40.6992C94.2454 41.1888 94.4373 41.7617 94.4788 42.418H92.7209C92.6587 41.9492 92.4461 41.5534 92.0831 41.2305C91.7305 40.9076 91.2431 40.7461 90.6208 40.7461C90.0815 40.7461 89.6356 40.8711 89.2829 41.1211C88.9303 41.3711 88.6659 41.7149 88.4896 42.1524C88.3133 42.5794 88.2251 43.0742 88.2251 43.6367C88.2251 44.1784 88.3081 44.668 88.474 45.1055C88.6503 45.543 88.9148 45.8867 89.2674 46.1367C89.6304 46.3867 90.0867 46.5117 90.6364 46.5117C91.0616 46.5117 91.4245 46.4388 91.7253 46.293C92.0364 46.1367 92.2853 45.9336 92.472 45.6836C92.6587 45.4232 92.7676 45.1263 92.7987 44.793H94.5721C94.541 45.4701 94.3492 46.0586 93.9965 46.5586C93.6439 47.0482 93.1772 47.4336 92.5965 47.7148C92.0157 47.9857 91.3623 48.1211 90.6364 48.1211Z" fill="#090402"/>
<path d="M81.253 47.8398V39.4179H82.6998V42.9335H82.6375C82.6375 41.7252 82.902 40.8242 83.4309 40.2304C83.9598 39.6263 84.7428 39.3242 85.7799 39.3242H86.0755V40.9335H85.5155C84.7273 40.9335 84.1206 41.1471 83.6954 41.5742C83.2805 41.9908 83.0731 42.5898 83.0731 43.371V47.8398H81.253Z" fill="#090402"/>
<path d="M69 47.8398L72.9824 36.4336H76.0782L80.1851 47.8398H78.2561L74.6625 37.6836L75.4248 38.043H73.5425L74.3514 37.6836L70.8668 47.8398H69ZM71.5824 44.6211L72.1735 42.9961H76.9338L77.5405 44.6211H71.5824Z" fill="#090402"/>
<path d="M130.222 30.7187L133.248 26.2656L133.182 26.5938L130.353 22.2969H132.458L134.416 25.3594H134.662L136.504 22.2969H138.478L135.797 26.5312L135.847 26.2344L139.021 30.7187H136.916L134.613 27.4219H134.383L132.195 30.7187H130.222Z" fill="#090402"/>
<path d="M125.678 31C124.91 31 124.241 30.875 123.671 30.625C123.101 30.375 122.635 30.0469 122.273 29.6406C121.911 29.224 121.637 28.7604 121.451 28.25C121.275 27.7292 121.188 27.1979 121.188 26.6563V26.3594C121.188 25.8073 121.275 25.276 121.451 24.7656C121.637 24.2448 121.911 23.7813 122.273 23.375C122.635 22.9583 123.09 22.6302 123.638 22.3906C124.198 22.1406 124.844 22.0156 125.579 22.0156C126.533 22.0156 127.328 22.2135 127.964 22.6094C128.6 23.0052 129.077 23.5208 129.395 24.1563C129.713 24.7813 129.872 25.4583 129.872 26.1875V26.9219H122.01V25.6875H128.573L128.046 26.3125C128.046 25.75 127.953 25.2656 127.767 24.8594C127.58 24.4427 127.306 24.125 126.944 23.9063C126.582 23.6771 126.127 23.5625 125.579 23.5625C125.009 23.5625 124.532 23.6875 124.148 23.9375C123.764 24.1875 123.479 24.5313 123.293 24.9688C123.107 25.4063 123.013 25.9219 123.013 26.5156C123.013 27.0781 123.107 27.5833 123.293 28.0313C123.479 28.4688 123.77 28.8177 124.165 29.0781C124.559 29.3281 125.064 29.4531 125.678 29.4531C126.292 29.4531 126.796 29.3281 127.191 29.0781C127.586 28.8177 127.827 28.5156 127.915 28.1719H129.707C129.587 28.7448 129.34 29.2448 128.967 29.6719C128.605 30.099 128.145 30.4271 127.586 30.6563C127.027 30.8854 126.391 31 125.678 31Z" fill="#090402"/>
<path d="M111.886 30.7188V22.2969H113.415V25.9062H113.234C113.234 25.0729 113.35 24.3698 113.58 23.7969C113.821 23.224 114.183 22.7917 114.665 22.5C115.148 22.1979 115.745 22.0469 116.458 22.0469H116.54C117.637 22.0469 118.454 22.375 118.991 23.0312C119.528 23.6875 119.797 24.6458 119.797 25.9062V30.7188H117.873V25.6563C117.873 25.0729 117.697 24.6042 117.346 24.25C116.995 23.8854 116.513 23.7031 115.899 23.7031C115.274 23.7031 114.77 23.8906 114.386 24.2656C114.002 24.6302 113.81 25.1198 113.81 25.7344V30.7188H111.886Z" fill="#090402"/>
<path d="M107.751 30.7188V22.2969H109.676V30.7188H107.751ZM106.452 23.7031V22.2969H109.676V23.7031H106.452ZM108.376 21.125C107.981 21.125 107.685 21.026 107.488 20.8281C107.302 20.6302 107.208 20.375 107.208 20.0625C107.208 19.7604 107.302 19.5104 107.488 19.3125C107.685 19.1042 107.981 19 108.376 19C108.782 19 109.078 19.1042 109.264 19.3125C109.462 19.5104 109.56 19.7604 109.56 20.0625C109.56 20.375 109.462 20.6302 109.264 20.8281C109.078 21.026 108.782 21.125 108.376 21.125Z" fill="#090402"/>
<path d="M97.3966 30.7188V19.3125H99.321V26.0469H98.9262C98.9262 25.2135 99.0359 24.5 99.2552 23.9063C99.4854 23.3021 99.8308 22.8438 100.291 22.5312C100.763 22.2083 101.355 22.0469 102.068 22.0469H102.15C103.192 22.0469 103.976 22.3802 104.502 23.0469C105.039 23.7135 105.308 24.6719 105.308 25.9219V30.7188H103.383V25.6563C103.383 25.0521 103.197 24.5781 102.824 24.2344C102.462 23.8802 101.991 23.7031 101.41 23.7031C100.785 23.7031 100.28 23.901 99.8966 24.2969C99.5129 24.6927 99.321 25.2135 99.321 25.8594V30.7188H97.3966Z" fill="#090402"/>
<path d="M91.8967 31C91.1401 31 90.4767 30.8802 89.9065 30.6406C89.3473 30.3906 88.8813 30.0573 88.5085 29.6406C88.1467 29.2135 87.8725 28.7448 87.6861 28.2344C87.5107 27.7135 87.423 27.1875 87.423 26.6563V26.375C87.423 25.8229 87.5162 25.2917 87.7026 24.7813C87.889 24.2604 88.1686 23.7917 88.5414 23.375C88.9142 22.9583 89.3747 22.6302 89.923 22.3906C90.4822 22.1406 91.1346 22.0156 91.8802 22.0156C92.6368 22.0156 93.3111 22.151 93.9033 22.4219C94.5063 22.6927 94.9888 23.0781 95.3506 23.5781C95.7125 24.0677 95.9153 24.6406 95.9592 25.2969H94.1006C94.0348 24.8281 93.81 24.4323 93.4263 24.1094C93.0535 23.7865 92.5381 23.625 91.8802 23.625C91.31 23.625 90.8386 23.75 90.4657 24C90.0929 24.25 89.8133 24.5938 89.6269 25.0313C89.4405 25.4583 89.3473 25.9531 89.3473 26.5156C89.3473 27.0573 89.435 27.5469 89.6105 27.9844C89.7969 28.4219 90.0765 28.7656 90.4493 29.0156C90.8331 29.2656 91.3155 29.3906 91.8967 29.3906C92.3462 29.3906 92.73 29.3177 93.048 29.1719C93.3769 29.0156 93.6401 28.8125 93.8375 28.5625C94.0348 28.3021 94.15 28.0052 94.1829 27.6719H96.0579C96.025 28.349 95.8221 28.9375 95.4493 29.4375C95.0765 29.9271 94.5831 30.3125 93.969 30.5938C93.355 30.8646 92.6642 31 91.8967 31Z" fill="#090402"/>
<path d="M81.9759 30.7188V22.2969H83.5055V25.8125H83.4398C83.4398 24.6042 83.7194 23.7031 84.2786 23.1094C84.8378 22.5052 85.6656 22.2031 86.7621 22.2031H87.0746V23.8125H86.4825C85.6492 23.8125 85.0077 24.026 84.5582 24.4531C84.1196 24.8698 83.9003 25.4688 83.9003 26.25V30.7188H81.9759Z" fill="#090402"/>
<path d="M69.0209 30.7188L73.2315 19.3125H76.5045L80.8466 30.7188H78.8071L75.0078 20.5625L75.8137 20.9219H73.8236L74.6788 20.5625L70.9946 30.7188H69.0209ZM71.7512 27.5L72.3762 25.875H77.4091L78.0506 27.5H71.7512Z" fill="#090402"/>
<path d="M164.858 40.9451C165.003 40.9451 165.097 40.8579 165.097 40.7186C165.097 40.5728 165.003 40.4928 164.858 40.4928H164.59V40.9451H164.858ZM164.249 40.1862H164.872C165.242 40.1862 165.437 40.4055 165.437 40.7114C165.437 40.9164 165.358 41.0837 165.133 41.1789L165.553 41.741H165.133L164.771 41.2447H164.59V41.741H164.249V40.1862ZM165.96 41.0036C165.96 40.3175 165.467 39.8139 164.8 39.8139C164.126 39.8139 163.632 40.3175 163.632 41.0036C163.632 41.6897 164.126 42.1934 164.793 42.1934C165.467 42.1934 165.96 41.6897 165.96 41.0036ZM163.3 41.0036C163.3 40.1573 163.96 39.5 164.8 39.5C165.641 39.5 166.3 40.1573 166.3 41.0036C166.3 41.8507 165.633 42.5 164.793 42.5C163.96 42.5 163.3 41.8507 163.3 41.0036Z" fill="#090402"/>
</svg>
