<svg width="20" height="20" viewBox="0 0 20 20" fill="none" xmlns="http://www.w3.org/2000/svg">
<path d="M19.1111 14.5586C19.1483 14.6472 19.1674 14.7427 19.1674 14.8392C19.1674 14.9358 19.1483 15.0313 19.1111 15.1199C19.0756 15.2063 19.0247 15.285 18.9612 15.3522L17.0865 17.2877C16.9547 17.4237 16.776 17.5 16.5897 17.5C16.4035 17.5 16.2248 17.4237 16.093 17.2877C15.9613 17.1516 15.8874 16.9671 15.8874 16.7748C15.8874 16.5825 15.9613 16.398 16.093 16.2619L16.7678 15.5651H12.8405C11.9082 15.5651 11.0142 15.1827 10.355 14.5021C9.69583 13.8215 9.3255 12.8984 9.3255 11.9359V6.12919C9.3255 5.55167 9.1033 4.99782 8.7078 4.58945C8.31229 4.18109 7.77586 3.95167 7.21653 3.95167H1.5926C1.40615 3.95167 1.22734 3.8752 1.09551 3.73908C0.96367 3.60296 0.889605 3.41834 0.889605 3.22584C0.889605 3.03333 0.96367 2.84871 1.09551 2.71259C1.22734 2.57647 1.40615 2.5 1.5926 2.5H7.21653C8.14875 2.5 9.04279 2.88236 9.70198 3.56296C10.3612 4.24357 10.7315 5.16667 10.7315 6.12919V11.9359C10.7315 12.5134 10.9537 13.0673 11.3492 13.4756C11.7447 13.884 12.2811 14.1134 12.8405 14.1134H16.7678L16.093 13.4166C15.9688 13.279 15.9012 13.097 15.9044 12.909C15.9076 12.7209 15.9814 12.5415 16.1102 12.4085C16.239 12.2755 16.4128 12.1994 16.5949 12.196C16.777 12.1927 16.9533 12.2625 17.0865 12.3907L18.9612 14.3263C19.0247 14.3934 19.0756 14.4722 19.1111 14.5586ZM13.0748 6.61308C13.0748 5.991 13.2534 5.38289 13.5882 4.86565C13.9229 4.34841 14.3987 3.94526 14.9553 3.7072C15.512 3.46914 16.1245 3.40686 16.7154 3.52822C17.3063 3.64958 17.8491 3.94914 18.2751 4.38902C18.7012 4.8289 18.9913 5.38933 19.1088 5.99946C19.2264 6.60959 19.1661 7.242 18.9355 7.81673C18.7049 8.39146 18.3145 8.88269 17.8135 9.2283C17.3126 9.57391 16.7236 9.75837 16.1211 9.75837C15.3139 9.75582 14.5405 9.42362 13.9698 8.83432C13.399 8.24501 13.0773 7.44648 13.0748 6.61308ZM14.4808 6.61308C14.4808 6.94804 14.577 7.27549 14.7572 7.554C14.9375 7.83252 15.1936 8.04959 15.4934 8.17778C15.7931 8.30597 16.1229 8.33951 16.4411 8.27416C16.7593 8.20881 17.0516 8.04751 17.281 7.81065C17.5104 7.57379 17.6666 7.27202 17.7299 6.94349C17.7932 6.61496 17.7607 6.27443 17.6365 5.96496C17.5124 5.65549 17.3021 5.39098 17.0324 5.20488C16.7626 5.01879 16.4455 4.91946 16.1211 4.91946C15.6868 4.922 15.271 5.10125 14.9639 5.41832C14.6568 5.73538 14.4832 6.16469 14.4808 6.61308ZM6.77599 9.51643C6.64417 9.3805 6.4655 9.30415 6.2792 9.30415C6.09291 9.30415 5.91424 9.3805 5.78242 9.51643L3.90778 11.452L2.03314 9.51643C1.89987 9.38822 1.72361 9.31842 1.54149 9.32173C1.35937 9.32505 1.1856 9.40123 1.0568 9.53421C0.928003 9.6672 0.854224 9.84661 0.851011 10.0347C0.847798 10.2227 0.9154 10.4047 1.03958 10.5423L2.91422 12.4778L1.03958 14.4134C0.907929 14.5495 0.833984 14.734 0.833984 14.9263C0.833984 15.1187 0.907929 15.3032 1.03958 15.4393C1.17139 15.5752 1.35006 15.6515 1.53636 15.6515C1.72265 15.6515 1.90133 15.5752 2.03314 15.4393L3.90778 13.5037L5.78242 15.4393C5.91424 15.5752 6.09291 15.6515 6.2792 15.6515C6.4655 15.6515 6.64417 15.5752 6.77599 15.4393C6.90763 15.3032 6.98158 15.1187 6.98158 14.9263C6.98158 14.734 6.90763 14.5495 6.77599 14.4134L4.90134 12.4778L6.77599 10.5423C6.84548 10.4744 6.90084 10.3927 6.93868 10.302C6.97651 10.2113 6.99603 10.1136 6.99603 10.0148C6.99603 9.91609 6.97651 9.81838 6.93868 9.72769C6.90084 9.637 6.84548 9.55523 6.77599 9.48739V9.51643Z" fill="#F94A3D"/>
</svg>
