<svg width="50" height="50" viewBox="0 0 50 50" fill="none" xmlns="http://www.w3.org/2000/svg">
<g opacity="0.74">
<path d="M19.3255 31.0537V25.8075H18.5127V31.0537H19.3255ZM31.487 31.0537V25.8075H30.6743V31.0537H31.487Z" fill="#F94A3D" stroke="#F94A3D" stroke-width="0.4" stroke-miterlimit="22.926"/>
<mask id="mask0_974_541" style="mask-type:luminance" maskUnits="userSpaceOnUse" x="1" y="1" width="48" height="48">
<path d="M48.7998 48.7998V1.2002H1.2002V48.7998H48.7998Z" fill="white" stroke="white" stroke-width="0.4"/>
<path d="M48.7998 48.7998V1.2002H1.2002V48.7998H48.7998ZM1.96094 1.95215H48.0381V48.0479H1.96094V1.95215Z" fill="white" stroke="white" stroke-width="0.4"/>
</mask>
<g mask="url(#mask0_974_541)">
<path d="M24.9997 28.4966C30.296 28.4966 34.627 24.1921 34.6795 18.9157L33.8664 18.9078C33.8182 23.7487 29.8434 27.6903 24.9997 27.6903C20.1561 27.6903 16.1812 23.7487 16.1331 18.9078L15.3203 18.9157C15.3727 24.1921 19.7036 28.4966 24.9997 28.4966Z" fill="#F94A3D" stroke="#F94A3D" stroke-width="0.4" stroke-miterlimit="22.926"/>
<path d="M36.6803 17.4126C36.6803 17.9434 36.2439 18.3776 35.6539 18.4165L24.9999 19.1181L14.3463 18.4165C13.7564 18.3777 13.3196 17.9434 13.3196 17.4126V16.0064C13.3196 15.4526 13.7737 15.0033 14.3195 15.0033H35.6808C36.2266 15.0034 36.6803 15.4526 36.6803 16.0064V17.4126ZM37.4934 16.0064C37.4934 15.0134 36.6817 14.1971 35.6808 14.197H14.3195C13.3186 14.197 12.5068 15.0133 12.5068 16.0064V17.4126C12.5068 18.4285 13.339 19.1584 14.2923 19.2213H14.2926L24.9731 19.9244L24.9999 19.9263L25.0268 19.9244L35.7076 19.2213C36.661 19.1585 37.4934 18.4287 37.4934 17.4126V16.0064Z" fill="#F94A3D" stroke="#F94A3D" stroke-width="0.4" stroke-miterlimit="22.926"/>
<path d="M21.7109 3.10927V8.41064H22.5237V3.10927C22.5237 2.55545 22.9777 2.10614 23.5236 2.10614H26.4767C27.0226 2.10617 27.4766 2.55554 27.4766 3.10927V8.41064H28.2894V3.10927C28.2894 2.11634 27.4777 1.29992 26.4767 1.29989H23.5236C22.5226 1.29989 21.7109 2.11622 21.7109 3.10927Z" fill="#F94A3D" stroke="#F94A3D" stroke-width="0.4" stroke-miterlimit="22.926"/>
<path d="M17.1339 5.92522C18.5231 4.38819 20.3337 3.5121 22.1174 3.5121V2.70585C20.0637 2.70585 18.044 3.71054 16.5287 5.3871L16.8311 5.65635L17.1339 5.92522ZM35.2744 12.4907V14.6001H36.0871V12.4907C36.0871 6.83343 32.0627 2.70585 27.8828 2.70585V3.5121C31.5139 3.5121 35.2744 7.17289 35.2744 12.4907ZM13.9131 12.4907V14.6001H14.7258V12.4907C14.7258 10.3495 15.3399 8.46804 16.3124 6.98872L15.9722 6.76822L15.6316 6.5481C14.5719 8.15987 13.9131 10.1947 13.9131 12.4907Z" fill="#F94A3D" stroke="#F94A3D" stroke-width="0.4" stroke-miterlimit="22.926"/>
<path d="M20.3047 13.1938V14.6001H21.1174V13.1938C21.1174 12.64 21.5715 12.1907 22.1173 12.1907H27.883C28.4288 12.1908 28.8829 12.6402 28.8829 13.1938V14.6001H29.6957V13.1938C29.6957 12.201 28.884 11.3845 27.883 11.3845H22.1173C21.1163 11.3845 20.3047 12.2008 20.3047 13.1938Z" fill="#F94A3D" stroke="#F94A3D" stroke-width="0.4" stroke-miterlimit="22.926"/>
<path d="M43.5778 28.944C43.5778 29.8844 42.8074 30.6501 41.8752 30.6502H38.7659V27.2377H41.8752C42.8077 27.2378 43.5778 28.0035 43.5778 28.944ZM5.60938 46.1872C5.60938 47.567 6.73744 48.6997 8.12516 48.6997H34.8439V47.8935H8.12516C7.19256 47.8935 6.42214 47.1277 6.42214 46.1872V43.8236H5.60938V46.1872ZM43.5778 46.1872C43.5778 47.1277 42.8077 47.8934 41.8752 47.8935H39.0627V48.6997H41.8752C43.2628 48.6996 44.391 47.5669 44.391 46.1872V43.8851H43.5778V46.1872ZM37.6564 48.6997V47.8935H36.2501V48.6997H37.6564ZM6.42214 28.944C6.42214 28.0034 7.19256 27.2377 8.12516 27.2377H11.2344V30.6502H8.12516C7.19283 30.6502 6.42219 29.8844 6.42214 28.944ZM44.3876 28.8153C44.3201 27.4945 43.2195 26.4315 41.8752 26.4315H37.9531V30.6502H12.0472V26.4315H8.12516C6.73744 26.4315 5.60938 27.5642 5.60938 28.944V33.8587H6.42214V30.7897C6.87051 31.2029 7.46885 31.4565 8.12516 31.4565H41.8752C42.5314 31.4564 43.1295 31.2028 43.5778 30.7897V33.9202H44.391V28.944L44.3876 28.8153Z" fill="#F94A3D" stroke="#F94A3D" stroke-width="0.4" stroke-miterlimit="22.926"/>
<path d="M8.13081 42.4177C8.13076 42.9713 7.67648 43.4208 7.13093 43.4208H4.90056C3.58135 43.4208 2.49445 42.3387 2.4944 41.0114V36.6716C2.49445 35.3444 3.58118 34.2622 4.90056 34.2622H7.13093C7.67663 34.2622 8.13076 34.7117 8.13081 35.2653V42.4177ZM41.0564 42.4792C41.0564 43.4722 41.8681 44.2885 42.869 44.2886H45.0994C46.8738 44.2886 48.3183 42.8395 48.3183 41.0729V36.7334C48.3183 34.9669 46.8737 33.5175 45.0994 33.5175H42.869C41.8681 33.5175 41.0564 34.3343 41.0564 35.3272V42.4792ZM8.94357 35.2653C8.94352 34.2726 8.13185 33.4559 7.13093 33.4559H4.90056C3.12605 33.4559 1.68169 34.9051 1.68164 36.6716V41.0114C1.68169 42.7779 3.12626 44.2271 4.90056 44.2271H7.13093C8.13162 44.2271 8.94352 43.4105 8.94357 42.4177V35.2653ZM41.8691 35.3272C41.8691 34.7735 42.3232 34.3241 42.869 34.3241H45.0994C46.4186 34.3241 47.5055 35.4062 47.5055 36.7334V41.0729C47.5055 42.4003 46.4187 43.4823 45.0994 43.4823H42.869C42.3231 43.4823 41.8691 43.0329 41.8691 42.4792V35.3272Z" fill="#F94A3D" stroke="#F94A3D" stroke-width="0.4" stroke-miterlimit="22.926"/>
<path d="M8.53713 37.5171V36.7108H6.42773V37.5171H8.53713ZM43.5721 37.5171V36.7108H41.4627V37.5171H43.5721ZM8.53713 41.0327V40.2265H6.42773V41.0327H8.53713ZM43.5721 41.0327V40.2265H41.4627V41.0327H43.5721Z" fill="#F94A3D" stroke="#F94A3D" stroke-width="0.4" stroke-miterlimit="22.926"/>
<path d="M36.25 34.269V33.4628H34.8438V34.269H36.25ZM39.0626 34.269V33.4628H37.6563V34.269H39.0626Z" fill="#F94A3D" stroke="#F94A3D" stroke-width="0.4" stroke-miterlimit="2.613"/>
</g>
</g>
</svg>
