<svg width="20" height="20" viewBox="0 0 20 20" fill="none" xmlns="http://www.w3.org/2000/svg">
<g clip-path="url(#clip0_908_488)">
<path fill-rule="evenodd" clip-rule="evenodd" d="M2.40652 2.40604C3.54412 1.26843 5.24642 0.833496 7.44067 0.833496H12.5555C14.7498 0.833496 16.4521 1.26843 17.5896 2.40604C18.7273 3.54364 19.1622 5.24595 19.1622 7.4402V10.8501C19.1622 11.2032 18.8759 11.4894 18.5229 11.4894C18.1698 11.4894 17.8835 11.2032 17.8835 10.8501V7.4402C17.8835 5.37205 17.466 4.09069 16.6855 3.31022C15.905 2.52976 14.6236 2.11221 12.5555 2.11221H7.44067C5.37252 2.11221 4.09117 2.52976 3.3107 3.31022C2.53024 4.09069 2.11269 5.37205 2.11269 7.4402V12.555C2.11269 14.6231 2.53024 15.9045 3.3107 16.685C4.09117 17.4654 5.37252 17.883 7.44067 17.883H10.8506C11.2037 17.883 11.4899 18.1693 11.4899 18.5223C11.4899 18.8754 11.2037 19.1617 10.8506 19.1617H7.44067C5.24642 19.1617 3.54412 18.7268 2.40652 17.5891C1.26891 16.4516 0.833984 14.7493 0.833984 12.555V7.4402C0.833984 5.24595 1.26891 3.54364 2.40652 2.40604Z" fill="#F94A3D"/>
<path fill-rule="evenodd" clip-rule="evenodd" d="M14.3702 7.367C14.6493 7.5833 14.7001 7.98495 14.4839 8.264L12.5108 10.8092C12.0037 11.4506 11.0687 11.5676 10.4164 11.0635L10.4119 11.0601L8.85475 9.8348C8.7586 9.76175 8.62445 9.7799 8.55135 9.87415C8.5513 9.87425 8.55145 9.8741 8.55135 9.87415L6.52285 12.5078C6.3074 12.7875 5.90595 12.8396 5.6262 12.6241C5.34645 12.4086 5.29435 12.0072 5.5098 11.7275L7.5393 9.09255C8.04565 8.43735 8.98435 8.3189 9.6382 8.8241L9.64265 8.8276L11.1998 10.0528C11.297 10.1267 11.434 10.1076 11.5065 10.0177L13.4732 7.4806C13.6895 7.2015 14.0911 7.15065 14.3702 7.367Z" fill="#F94A3D"/>
<path fill-rule="evenodd" clip-rule="evenodd" d="M15.2747 13.5366L15.0346 14.0256C14.9193 14.2561 14.7367 14.4452 14.5565 14.5804C14.3773 14.7148 14.1429 14.839 13.8859 14.8818L13.8804 14.8827L13.5594 14.9333C13.2851 14.9795 13.2066 15.062 13.1894 15.0853C13.1896 15.1142 13.2043 15.2314 13.4074 15.4372L13.7043 15.7342L13.7138 15.7439C13.9026 15.9409 14.0218 16.192 14.0868 16.4209C14.1516 16.6493 14.1823 16.9259 14.124 17.1924L14.1215 17.2038L14.0792 17.381C14.0241 17.6193 14.0257 17.7759 14.0415 17.863C14.0431 17.8721 14.0448 17.8799 14.0466 17.8867C14.0523 17.8863 14.0587 17.8856 14.0658 17.8847C14.1506 17.8736 14.2982 17.8281 14.5075 17.7018L14.5183 17.6955L14.7384 17.5684L14.7394 17.5678C14.9913 17.422 15.2809 17.3669 15.5368 17.3669C15.7928 17.3669 16.0824 17.422 16.3343 17.5679L16.3353 17.5684L16.5648 17.7009C16.772 17.8252 16.9181 17.8701 17.0023 17.881C17.0098 17.882 17.0166 17.8827 17.0225 17.8832C17.0243 17.876 17.0262 17.8677 17.028 17.8581C17.0442 17.7717 17.0468 17.616 16.9939 17.3787L16.9496 17.1924C16.8913 16.9259 16.922 16.6493 16.9869 16.4209C17.0518 16.192 17.171 15.9409 17.3599 15.7439L17.3693 15.7342L17.6662 15.4372C17.8693 15.2314 17.884 15.1142 17.8842 15.0853C17.867 15.062 17.7885 14.9795 17.5142 14.9333L17.1932 14.8827C17.186 14.8815 17.1786 14.8802 17.1714 14.8789C16.924 14.831 16.6958 14.7132 16.5146 14.5778C16.3341 14.4427 16.154 14.2554 16.0391 14.0255L16.0371 14.0215L15.7993 13.5376L15.7989 13.5366C15.7126 13.3628 15.6309 13.2701 15.5773 13.2263C15.5586 13.211 15.5451 13.2029 15.5368 13.1989C15.5286 13.2029 15.5151 13.211 15.4963 13.2263C15.4427 13.2701 15.361 13.3628 15.2747 13.5366ZM15.5368 11.9175C16.1984 11.9175 16.6706 12.4156 16.9451 12.9699L16.9461 12.9719L17.1831 13.4542C17.1831 13.4542 17.1837 13.4553 17.1843 13.4564C17.1854 13.4582 17.187 13.4607 17.1892 13.4639C17.1937 13.4705 17.2003 13.4789 17.2091 13.489C17.2273 13.5095 17.2515 13.532 17.2805 13.5537C17.3389 13.5973 17.3883 13.6167 17.4092 13.6222L17.722 13.6716C18.3232 13.7718 18.9086 14.0827 19.1041 14.6964C19.2989 15.308 19.0045 15.9021 18.5746 16.3372L18.5719 16.34L18.2817 16.6302C18.2804 16.6317 18.2782 16.6346 18.2751 16.6389C18.27 16.6461 18.2636 16.6564 18.2565 16.6697C18.242 16.697 18.2279 16.7315 18.217 16.77C18.2061 16.8085 18.2001 16.8448 18.1982 16.8749C18.1966 16.8997 18.1981 16.914 18.1987 16.918L18.2407 17.0946C18.3849 17.7365 18.3656 18.5056 17.7867 18.9292C17.2062 19.3542 16.4713 19.1349 15.9119 18.8004L15.6947 18.6752L15.6932 18.6743C15.681 18.6672 15.6258 18.6456 15.5368 18.6456C15.4478 18.6456 15.3926 18.6672 15.3805 18.6743L15.3789 18.6752L15.1624 18.8001C14.5996 19.1382 13.8609 19.3597 13.2792 18.9315C12.6993 18.5046 12.6852 17.7317 12.8339 17.0904L12.8348 17.0868L12.875 16.918C12.8755 16.914 12.8771 16.8997 12.8755 16.8749C12.8735 16.8448 12.8676 16.8085 12.8566 16.77C12.8457 16.7315 12.8316 16.697 12.8171 16.6697C12.81 16.6564 12.8036 16.6461 12.7985 16.6389C12.7955 16.6346 12.7932 16.6317 12.792 16.6302L12.499 16.3373C12.0691 15.9021 11.7748 15.308 11.9695 14.6964C12.165 14.0827 12.7504 13.7718 13.3517 13.6716L13.3571 13.6707L13.6745 13.6206C13.6763 13.6201 13.6871 13.6172 13.7064 13.6082C13.7305 13.5968 13.7594 13.5798 13.7893 13.5574C13.8189 13.5351 13.8444 13.5115 13.8636 13.4898C13.873 13.4792 13.8799 13.4702 13.8847 13.4635C13.8882 13.4582 13.8901 13.4551 13.8906 13.454L14.1285 12.9699C14.4031 12.4156 14.8753 11.9175 15.5368 11.9175Z" fill="#F94A3D"/>
</g>
<defs>
<clipPath id="clip0_908_488">
<rect width="20" height="20" fill="white"/>
</clipPath>
</defs>
</svg>
